<?xml version="1.0" encoding="UTF-8" standalone="no"?>
<!-- Created with Inkscape (http://www.inkscape.org/) -->

<svg
   xmlns:dc="http://purl.org/dc/elements/1.1/"
   xmlns:cc="http://creativecommons.org/ns#"
   xmlns:rdf="http://www.w3.org/1999/02/22-rdf-syntax-ns#"
   xmlns:svg="http://www.w3.org/2000/svg"
   xmlns="http://www.w3.org/2000/svg"
   xmlns:xlink="http://www.w3.org/1999/xlink"
   xmlns:sodipodi="http://sodipodi.sourceforge.net/DTD/sodipodi-0.dtd"
   xmlns:inkscape="http://www.inkscape.org/namespaces/inkscape"
   width="210mm"
   height="297mm"
   viewBox="0 0 210 297"
   version="1.1"
   id="svg8"
   inkscape:version="0.92.1 r15371"
   sodipodi:docname="icon.svg">
  <sodipodi:namedview
     id="base"
     pagecolor="#ffffff"
     bordercolor="#666666"
     borderopacity="1.0"
     inkscape:pageopacity="0.0"
     inkscape:pageshadow="2"
     inkscape:zoom="0.96904752"
     inkscape:cx="354.62545"
     inkscape:cy="451.06246"
     inkscape:document-units="mm"
     inkscape:current-layer="layer1"
     showgrid="false"
     showborder="false"
     inkscape:snap-global="false"
     showguides="true"
     inkscape:guide-bbox="true"
     inkscape:snap-smooth-nodes="true"
     inkscape:snap-midpoints="true"
     inkscape:snap-bbox="true"
     inkscape:bbox-nodes="true"
     inkscape:bbox-paths="true"
     inkscape:snap-bbox-edge-midpoints="true"
     inkscape:snap-bbox-midpoints="true"
     inkscape:object-paths="true"
     inkscape:snap-intersection-paths="true"
     inkscape:window-width="1920"
     inkscape:window-height="1018"
     inkscape:window-x="-8"
     inkscape:window-y="-8"
     inkscape:window-maximized="1" />
  <defs
     id="defs2">
    <filter
       height="1.2800679"
       y="-0.14003394"
       width="1.2099618"
       x="-0.10498092"
       id="filter4774"
       style="color-interpolation-filters:sRGB"
       inkscape:collect="always">
      <feGaussianBlur
         id="feGaussianBlur4776"
         stdDeviation="1.6664605"
         inkscape:collect="always" />
    </filter>
    <linearGradient
       gradientTransform="matrix(0.3604954,0,0,0.3604954,93.96282,-54.474673)"
       inkscape:collect="always"
       xlink:href="#linearGradient4554"
       id="linearGradient4556"
       x1="-281.45602"
       y1="593.75061"
       x2="-81.721252"
       y2="793.48535"
       gradientUnits="userSpaceOnUse" />
    <linearGradient
       inkscape:collect="always"
       id="linearGradient4554">
      <stop
         style="stop-color:#00006e;stop-opacity:1"
         offset="0"
         id="stop4550" />
      <stop
         id="stop4609"
         offset="0.51770115"
         style="stop-color:#000083;stop-opacity:0.85882354" />
      <stop
         style="stop-color:#000076;stop-opacity:1"
         offset="1"
         id="stop4552" />
    </linearGradient>
  </defs>
  <metadata
     id="metadata5">
    <rdf:RDF>
      <cc:Work
         rdf:about="">
        <dc:format>image/svg+xml</dc:format>
        <dc:type
           rdf:resource="http://purl.org/dc/dcmitype/StillImage" />
        <dc:title />
      </cc:Work>
    </rdf:RDF>
  </metadata>
  <g
     id="layer1"
     inkscape:groupmode="layer"
     inkscape:label="Layer 1">
    <circle
       r="24.388054"
       cy="117.32623"
       cx="-37.350399"
       id="path4580"
       style="opacity:1;fill:#16a085;fill-opacity:1;stroke:none;stroke-width:0.26499999;stroke-linecap:round;stroke-linejoin:round;stroke-miterlimit:4;stroke-dasharray:none;stroke-dashoffset:0;stroke-opacity:0" />
    <path
       inkscape:connector-curvature="0"
       id="path4609"
       d="M 7.2523487,59.5397 A 4.5400833,4.5400833 0 0 0 6.7991439,59.56244 4.5400833,4.5400833 0 0 0 6.3505931,59.63014 4.5400833,4.5400833 0 0 0 5.9108265,59.742279 4.5400833,4.5400833 0 0 0 5.4844981,59.897824 4.5400833,4.5400833 0 0 0 5.0757354,60.095227 4.5400833,4.5400833 0 0 0 4.6886791,60.332424 4.5400833,4.5400833 0 0 0 4.327462,60.607342 4.5400833,4.5400833 0 0 0 3.9951823,60.916367 4.5400833,4.5400833 0 0 0 3.6959756,61.257431 4.5400833,4.5400833 0 0 0 3.4319082,61.6264 4.5400833,4.5400833 0 0 0 3.2060837,62.020174 4.5400833,4.5400833 0 0 0 3.0205658,62.43462 4.5400833,4.5400833 0 0 0 2.877421,62.865084 4.5400833,4.5400833 0 0 0 2.778202,63.307952 4.5400833,4.5400833 0 0 0 2.723425,63.758571 4.5400833,4.5400833 0 0 0 2.712056,64.079998 v 13.045199 a 4.5400833,4.5400833 0 0 0 0.022738,0.453202 4.5400833,4.5400833 0 0 0 0.067696,0.448551 4.5400833,4.5400833 0 0 0 0.1121357,0.439766 4.5400833,4.5400833 0 0 0 0.1555485,0.426331 4.5400833,4.5400833 0 0 0 0.197403,0.408761 4.5400833,4.5400833 0 0 0 0.2371937,0.387056 4.5400833,4.5400833 0 0 0 0.2749206,0.36122 4.5400833,4.5400833 0 0 0 0.3090227,0.332279 4.5400833,4.5400833 0 0 0 0.3410664,0.299207 4.5400833,4.5400833 0 0 0 0.3689694,0.264065 4.5400833,4.5400833 0 0 0 0.3937741,0.225827 4.5400833,4.5400833 0 0 0 0.414446,0.185518 4.5400833,4.5400833 0 0 0 0.4304638,0.143142 4.5400833,4.5400833 0 0 0 0.4428675,0.09922 4.5400833,4.5400833 0 0 0 0.4506172,0.05478 4.5400833,4.5400833 0 0 0 0.3214291,0.01137 H 20.297545 a 4.5400833,4.5400833 0 0 0 0.453202,-0.02274 4.5400833,4.5400833 0 0 0 0.448554,-0.0677 4.5400833,4.5400833 0 0 0 0.439766,-0.112139 4.5400833,4.5400833 0 0 0 0.426329,-0.155546 4.5400833,4.5400833 0 0 0 0.408762,-0.197403 4.5400833,4.5400833 0 0 0 0.387057,-0.237196 4.5400833,4.5400833 0 0 0 0.361217,-0.274918 4.5400833,4.5400833 0 0 0 0.332279,-0.309025 4.5400833,4.5400833 0 0 0 0.299207,-0.341064 4.5400833,4.5400833 0 0 0 0.264067,-0.368969 4.5400833,4.5400833 0 0 0 0.225825,-0.393777 4.5400833,4.5400833 0 0 0 0.185518,-0.414443 4.5400833,4.5400833 0 0 0 0.143145,-0.430464 4.5400833,4.5400833 0 0 0 0.09922,-0.442868 4.5400833,4.5400833 0 0 0 0.05478,-0.45062 4.5400833,4.5400833 0 0 0 0.01137,-0.321426 V 64.079992 a 4.5400833,4.5400833 0 0 0 -0.02274,-0.453202 4.5400833,4.5400833 0 0 0 -0.0677,-0.448551 4.5400833,4.5400833 0 0 0 -0.112139,-0.439767 4.5400833,4.5400833 0 0 0 -0.155545,-0.426331 4.5400833,4.5400833 0 0 0 -0.197403,-0.40876 4.5400833,4.5400833 0 0 0 -0.237194,-0.387056 4.5400833,4.5400833 0 0 0 -0.274921,-0.36122 4.5400833,4.5400833 0 0 0 -0.309025,-0.332279 4.5400833,4.5400833 0 0 0 -0.341064,-0.299205 4.5400833,4.5400833 0 0 0 -0.368969,-0.264067 4.5400833,4.5400833 0 0 0 -0.393774,-0.225827 4.5400833,4.5400833 0 0 0 -0.414446,-0.185518 4.5400833,4.5400833 0 0 0 -0.430464,-0.143145 4.5400833,4.5400833 0 0 0 -0.442868,-0.09922 4.5400833,4.5400833 0 0 0 -0.450617,-0.05478 4.5400833,4.5400833 0 0 0 -0.321429,-0.01137 z"
       style="opacity:0.6;fill:#ff00ff;fill-opacity:1;stroke:none;stroke-width:0.26499999;stroke-linecap:round;stroke-linejoin:round;stroke-miterlimit:4;stroke-dasharray:none;stroke-dashoffset:0;stroke-opacity:0" />
    <g
       transform="translate(-57.554464,3.5567365)"
       id="g4715">
      <path
         style="opacity:1;fill:#ffffff;fill-opacity:1;stroke:none;stroke-width:0.39629659;stroke-linecap:round;stroke-linejoin:round;stroke-miterlimit:4;stroke-dasharray:none;stroke-dashoffset:0;stroke-opacity:0"
         d="m 8.3781761,98.993908 -4.216797,12.550132 15.2176759,7.00836 v -13.94178 z m 23.6517849,0 -11.000878,5.616712 v 13.94178 l 15.217673,-7.00836 z m -27.2593169,1.551322 -4.27570799,12.72429 6.84350999,3.15175 -1.790072,0.99942 v 2.7187 l 4.4591599,-2.48874 2.979146,1.37201 -1.987476,1.10949 v 1.76733 l -7.0362619,3.9269 v 2.71869 l 13.4276039,-7.49411 1.988509,0.9157 h 1.650028 l 2.005046,-0.92345 13.427607,7.49411 v -2.71869 l -7.036267,-3.9269 v -1.76733 l -1.987476,-1.10949 2.939357,-1.35341 4.646229,2.59312 v -2.71869 l -1.977658,-1.10381 6.867275,-3.1626 -4.275702,-12.72429 H 33.84794 l 3.952216,11.76207 -16.771073,7.72408 h -1.650028 l -16.7710699,-7.77937 3.933094,-11.70678 z"
         id="rect4531"
         inkscape:connector-curvature="0" />
      <path
         style="color:#000000;font-style:normal;font-variant:normal;font-weight:normal;font-stretch:normal;font-size:medium;line-height:normal;font-family:sans-serif;font-variant-ligatures:normal;font-variant-position:normal;font-variant-caps:normal;font-variant-numeric:normal;font-variant-alternates:normal;font-feature-settings:normal;text-indent:0;text-align:start;text-decoration:none;text-decoration-line:none;text-decoration-style:solid;text-decoration-color:#000000;letter-spacing:normal;word-spacing:normal;text-transform:none;writing-mode:lr-tb;direction:ltr;text-orientation:mixed;dominant-baseline:auto;baseline-shift:baseline;text-anchor:start;white-space:normal;shape-padding:0;clip-rule:nonzero;display:inline;overflow:visible;visibility:visible;opacity:1;isolation:auto;mix-blend-mode:normal;color-interpolation:sRGB;color-interpolation-filters:linearRGB;solid-color:#000000;solid-opacity:1;vector-effect:none;fill:#16a085;fill-opacity:1;fill-rule:nonzero;stroke:none;stroke-width:0.54400003;stroke-linecap:round;stroke-linejoin:bevel;stroke-miterlimit:4;stroke-dasharray:none;stroke-dashoffset:0;stroke-opacity:1;color-rendering:auto;image-rendering:auto;shape-rendering:auto;text-rendering:auto;enable-background:accumulate"
         d="m 30.96353,101.10481 c -0.03047,3.2e-4 -0.0663,0.009 -0.106971,0.0295 l -8.333857,4.13929 c -0.32536,0.16159 -0.08885,0.67852 0.235128,0.51418 l 8.098729,-4.10828 c 0.283485,-0.1438 0.320244,-0.57688 0.106971,-0.57464 z m 0.392742,1.24282 c -0.03045,3.6e-4 -0.06633,0.01 -0.106971,0.03 l -8.726599,4.34857 c -0.02032,0.0101 -0.03821,0.0215 -0.05426,0.0341 -0.01596,0.0125 -0.0304,0.0268 -0.04237,0.0413 -0.02405,0.0293 -0.03982,0.0618 -0.04909,0.0961 0,0 0,5.2e-4 0,5.2e-4 -0.0092,0.0342 -0.0119,0.0698 -0.0083,0.1049 0,0 0,5.2e-4 0,5.2e-4 7.8e-4,0.007 0.0049,0.0142 0.0062,0.0217 0.01107,0.0623 0.03743,0.12218 0.0801,0.16692 0,0 5.17e-4,0 5.17e-4,0 0,0 0,5.1e-4 0,5.1e-4 0.04774,0.05 0.112635,0.0815 0.186035,0.0791 0.03681,-0.001 0.07579,-0.0109 0.116272,-0.0315 l 8.098729,-4.10827 c 0.01752,-0.009 0.03036,-0.0227 0.04599,-0.0336 l 0.346749,-0.17622 c 0.283345,-0.14407 0.320112,-0.57714 0.106971,-0.57464 z m 0.402043,1.27331 c -0.03048,3e-4 -0.06577,0.009 -0.106455,0.0295 l -0.771012,0.3824 c -0.0087,0.004 -0.01505,0.002 -0.02429,0.007 l -8.333857,4.13929 c -0.04068,0.0202 -0.07258,0.0462 -0.09663,0.0754 -0.07187,0.0877 -0.07353,0.20686 -0.02945,0.30334 0,0 0,5.2e-4 0,5.2e-4 0.05896,0.1286 0.19929,0.21675 0.361218,0.13487 l 8.894021,-4.49739 c 0.283667,-0.14344 0.319804,-0.57672 0.106455,-0.57464 z m 0.388607,1.22938 c -0.03044,3.7e-4 -0.06634,0.01 -0.106972,0.03 l -9.517248,4.75113 c -0.02031,0.0101 -0.03821,0.0214 -0.05426,0.0341 -0.04819,0.0379 -0.07755,0.086 -0.09147,0.13746 0,0 0,5.2e-4 0,5.2e-4 -0.02758,0.10278 0.0063,0.21887 0.07803,0.29404 0,0 5.17e-4,0 5.17e-4,0 0,0 0,5.1e-4 0,5.1e-4 0.04774,0.05 0.112641,0.0815 0.186035,0.0791 0.01826,-6.7e-4 0.03705,-0.004 0.05633,-0.009 0.01944,-0.005 0.03971,-0.0125 0.05994,-0.0227 l 8.098729,-4.10827 c 0.01831,-0.009 0.03181,-0.0236 0.04806,-0.0351 l 1.135329,-0.57723 c 0.28334,-0.14408 0.320056,-0.57725 0.106972,-0.57464 z m 0.39739,1.2578 c -0.03045,3.7e-4 -0.06634,0.01 -0.106971,0.03 l -9.914639,4.94596 c -0.02032,0.0101 -0.03821,0.0215 -0.05426,0.0341 -0.04819,0.0379 -0.07755,0.086 -0.09147,0.13745 -0.0093,0.0343 -0.01192,0.0701 -0.0083,0.10542 0.0073,0.0706 0.03894,0.13895 0.08682,0.18914 0.0099,0.0104 0.02332,0.0161 0.03462,0.0248 0.07033,0.0541 0.163035,0.0764 0.267684,0.0233 l 8.098729,-4.10828 c 0.0076,-0.004 0.01288,-0.0102 0.02016,-0.0145 l 1.560626,-0.79271 c 0.283427,-0.14392 0.320096,-0.57717 0.106971,-0.57464 z m 0.399976,1.26608 c -0.03046,3.3e-4 -0.0658,0.01 -0.106452,0.03 l -10.315134,5.1325 c -0.02033,0.0101 -0.0382,0.0215 -0.05426,0.0341 -0.01596,0.0125 -0.0304,0.0263 -0.04237,0.0408 -0.02405,0.0293 -0.03982,0.0623 -0.04909,0.0966 -0.05567,0.20578 0.137759,0.46565 0.380855,0.34262 l 10.080006,-5.10202 c 0.283612,-0.14354 0.319693,-0.57694 0.106452,-0.57464 z m 0.395325,1.25057 c -0.03046,3.4e-4 -0.06632,0.01 -0.106971,0.03 l -10.70994,5.33456 c -0.02032,0.0101 -0.0382,0.0215 -0.05426,0.0341 -0.01596,0.0125 -0.0304,0.0263 -0.04237,0.0408 -0.02405,0.0293 -0.03982,0.0623 -0.04909,0.0966 -0.05566,0.20581 0.137774,0.46516 0.380855,0.34209 l 10.474812,-5.30303 c 0.283596,-0.14359 0.32018,-0.57753 0.106971,-0.57516 z m 0.400492,1.26865 c -0.03048,3.1e-4 -0.06578,0.009 -0.106453,0.0295 l -11.11095,5.51905 c -0.122008,0.0606 -0.164891,0.1707 -0.153996,0.27647 0,0 0,5.1e-4 0,5.1e-4 0.0037,0.0351 0.01327,0.0698 0.02791,0.10181 0,0 0,5.1e-4 0,5.1e-4 0.01469,0.032 0.03456,0.0613 0.05839,0.0863 0,0 0,5.2e-4 0,5.2e-4 0.01391,0.0146 0.03205,0.0235 0.04858,0.0346 0.01183,0.008 0.02162,0.019 0.03462,0.0248 0,0 5.17e-4,0 5.17e-4,0 0.005,0.002 0.01134,0.001 0.01654,0.003 0.04327,0.0157 0.09056,0.0222 0.142627,0.008 0.01946,-0.005 0.03967,-0.013 0.05994,-0.0233 l 10.875822,-5.48752 c 0.283787,-0.1432 0.319786,-0.57676 0.106453,-0.57464 z"
         id="path4641"
         inkscape:connector-curvature="0" />
      <path
         inkscape:connector-curvature="0"
         id="path4710"
         d="m 9.4446058,101.10489 c 0.03047,3.2e-4 0.0663,0.009 0.106971,0.0295 l 8.3338572,4.13929 c 0.32536,0.16159 0.08885,0.67852 -0.235128,0.51418 l -8.0987292,-4.10828 c -0.283485,-0.1438 -0.320244,-0.57688 -0.106971,-0.57464 z m -0.392742,1.24282 c 0.03045,3.6e-4 0.06633,0.01 0.106971,0.03 l 8.7265992,4.34857 c 0.02032,0.0101 0.03821,0.0215 0.05426,0.0341 0.01596,0.0125 0.0304,0.0268 0.04237,0.0413 0.02405,0.0293 0.03982,0.0618 0.04909,0.0961 0,0 0,5.2e-4 0,5.2e-4 0.0092,0.0342 0.0119,0.0698 0.0083,0.1049 0,0 0,5.2e-4 0,5.2e-4 -7.8e-4,0.007 -0.0049,0.0142 -0.0062,0.0217 -0.01107,0.0623 -0.03743,0.12218 -0.0801,0.16692 0,0 -5.17e-4,0 -5.17e-4,0 0,0 0,5.1e-4 0,5.1e-4 -0.04774,0.05 -0.112635,0.0815 -0.186035,0.0791 -0.03681,-0.001 -0.07579,-0.0109 -0.116272,-0.0315 l -8.0987292,-4.10827 c -0.01752,-0.009 -0.03036,-0.0227 -0.04599,-0.0336 l -0.346749,-0.17622 c -0.283345,-0.14407 -0.320112,-0.57714 -0.106971,-0.57464 z m -0.402043,1.27331 c 0.03048,3e-4 0.06577,0.009 0.106455,0.0295 l 0.771012,0.3824 c 0.0087,0.004 0.01505,0.002 0.02429,0.007 l 8.3338572,4.13929 c 0.04068,0.0202 0.07258,0.0462 0.09663,0.0754 0.07187,0.0877 0.07353,0.20686 0.02945,0.30334 0,0 0,5.2e-4 0,5.2e-4 -0.05896,0.1286 -0.19929,0.21675 -0.361218,0.13487 l -8.8940212,-4.49739 c -0.283667,-0.14344 -0.319804,-0.57672 -0.106455,-0.57464 z m -0.388607,1.22938 c 0.03044,3.7e-4 0.06634,0.01 0.106972,0.03 l 9.5172482,4.75113 c 0.02031,0.0101 0.03821,0.0214 0.05426,0.0341 0.04819,0.0379 0.07755,0.086 0.09147,0.13746 0,0 0,5.2e-4 0,5.2e-4 0.02758,0.10278 -0.0063,0.21887 -0.07803,0.29404 0,0 -5.17e-4,0 -5.17e-4,0 0,0 0,5.1e-4 0,5.1e-4 -0.04774,0.05 -0.112641,0.0815 -0.186035,0.0791 -0.01826,-6.7e-4 -0.03705,-0.004 -0.05633,-0.009 -0.01944,-0.005 -0.03971,-0.0125 -0.05994,-0.0227 l -8.0987292,-4.10827 c -0.01831,-0.009 -0.03181,-0.0236 -0.04806,-0.0351 l -1.135329,-0.57723 c -0.28334,-0.14408 -0.320056,-0.57725 -0.106972,-0.57464 z m -0.39739,1.2578 c 0.03045,3.7e-4 0.06634,0.01 0.106971,0.03 l 9.9146392,4.94596 c 0.02032,0.0101 0.03821,0.0215 0.05426,0.0341 0.04819,0.0379 0.07755,0.086 0.09147,0.13745 0.0093,0.0343 0.01192,0.0701 0.0083,0.10542 -0.0073,0.0706 -0.03894,0.13895 -0.08682,0.18914 -0.0099,0.0104 -0.02332,0.0161 -0.03462,0.0248 -0.07033,0.0541 -0.163035,0.0764 -0.267684,0.0233 l -8.0987292,-4.10828 c -0.0076,-0.004 -0.01288,-0.0102 -0.02016,-0.0145 l -1.560626,-0.79271 c -0.283427,-0.14392 -0.320096,-0.57717 -0.106971,-0.57464 z m -0.399976,1.26608 c 0.03046,3.3e-4 0.0658,0.01 0.106452,0.03 l 10.3151342,5.1325 c 0.02033,0.0101 0.0382,0.0215 0.05426,0.0341 0.01596,0.0125 0.0304,0.0263 0.04237,0.0408 0.02405,0.0293 0.03982,0.0623 0.04909,0.0966 0.05567,0.20578 -0.137759,0.46565 -0.380855,0.34262 L 7.5702928,107.94888 c -0.283612,-0.14354 -0.319693,-0.57694 -0.106452,-0.57464 z m -0.395325,1.25057 c 0.03046,3.4e-4 0.06632,0.01 0.106971,0.03 l 10.7099402,5.33456 c 0.02032,0.0101 0.0382,0.0215 0.05426,0.0341 0.01596,0.0125 0.0304,0.0263 0.04237,0.0408 0.02405,0.0293 0.03982,0.0623 0.04909,0.0966 0.05566,0.20581 -0.137774,0.46516 -0.380855,0.34209 L 7.1754868,109.19997 c -0.283596,-0.14359 -0.32018,-0.57753 -0.106971,-0.57516 z m -0.400492,1.26865 c 0.03048,3.1e-4 0.06578,0.009 0.106453,0.0295 l 11.1109502,5.51905 c 0.122008,0.0606 0.164891,0.1707 0.153996,0.27647 0,0 0,5.1e-4 0,5.1e-4 -0.0037,0.0351 -0.01327,0.0698 -0.02791,0.10181 0,0 0,5.1e-4 0,5.1e-4 -0.01469,0.032 -0.03456,0.0613 -0.05839,0.0863 0,0 0,5.2e-4 0,5.2e-4 -0.01391,0.0146 -0.03205,0.0235 -0.04858,0.0346 -0.01183,0.008 -0.02162,0.019 -0.03462,0.0248 0,0 -5.17e-4,0 -5.17e-4,0 -0.005,0.002 -0.01134,0.001 -0.01654,0.003 -0.04327,0.0157 -0.09056,0.0222 -0.142627,0.008 -0.01946,-0.005 -0.03967,-0.013 -0.05994,-0.0233 L 6.7744838,110.46775 c -0.283787,-0.1432 -0.319786,-0.57676 -0.106453,-0.57464 z"
         style="color:#000000;font-style:normal;font-variant:normal;font-weight:normal;font-stretch:normal;font-size:medium;line-height:normal;font-family:sans-serif;font-variant-ligatures:normal;font-variant-position:normal;font-variant-caps:normal;font-variant-numeric:normal;font-variant-alternates:normal;font-feature-settings:normal;text-indent:0;text-align:start;text-decoration:none;text-decoration-line:none;text-decoration-style:solid;text-decoration-color:#000000;letter-spacing:normal;word-spacing:normal;text-transform:none;writing-mode:lr-tb;direction:ltr;text-orientation:mixed;dominant-baseline:auto;baseline-shift:baseline;text-anchor:start;white-space:normal;shape-padding:0;clip-rule:nonzero;display:inline;overflow:visible;visibility:visible;opacity:1;isolation:auto;mix-blend-mode:normal;color-interpolation:sRGB;color-interpolation-filters:linearRGB;solid-color:#000000;solid-opacity:1;vector-effect:none;fill:#16a085;fill-opacity:1;fill-rule:nonzero;stroke:none;stroke-width:0.54400003;stroke-linecap:round;stroke-linejoin:bevel;stroke-miterlimit:4;stroke-dasharray:none;stroke-dashoffset:0;stroke-opacity:1;color-rendering:auto;image-rendering:auto;shape-rendering:auto;text-rendering:auto;enable-background:accumulate" />
    </g>
    <g
       id="g4512"
       transform="matrix(0.58584343,0,0,0.58584343,42.300634,16.266145)">
      <path
         inkscape:connector-curvature="0"
         id="circle6435"
         d="m 60.053051,106.39878 a 24.388053,24.388053 0 0 0 -24.388175,24.38818 24.388053,24.388053 0 0 0 24.388175,24.38817 24.388053,24.388053 0 0 0 24.387656,-24.38817 24.388053,24.388053 0 0 0 -24.387656,-24.38818 z m 0,0.93379 a 23.45409,23.45409 0 0 1 23.453865,23.45439 23.45409,23.45409 0 0 1 -23.453865,23.45386 23.45409,23.45409 0 0 1 -23.454384,-23.45386 23.45409,23.45409 0 0 1 23.454384,-23.45439 z m 0,0.26717 a 23.187244,23.187244 0 0 0 -23.187215,23.18722 23.187244,23.187244 0 0 0 23.187215,23.18721 23.187244,23.187244 0 0 0 23.187215,-23.18721 23.187244,23.187244 0 0 0 -23.187215,-23.18722 z"
         style="opacity:1;fill:#102747;fill-opacity:1;stroke:none;stroke-width:0.25195202;stroke-linecap:round;stroke-linejoin:round;stroke-miterlimit:4;stroke-dasharray:none;stroke-dashoffset:0;stroke-opacity:0" />
      <path
         transform="matrix(0.72926402,0,0,0.72926402,-23.702882,36.565647)"
         inkscape:connector-curvature="0"
         style="opacity:1;fill:#000000;fill-opacity:1;stroke:none;stroke-width:0.38301754;stroke-linecap:round;stroke-linejoin:round;stroke-miterlimit:4;stroke-dasharray:none;stroke-dashoffset:0;stroke-opacity:0;filter:url(#filter4774)"
         d="m 106.09937,117.56496 -4.0755,12.12961 14.70777,6.77352 v -13.47462 z m 22.85927,0 -10.63226,5.42851 v 13.47462 l 14.70776,-6.77352 z m -26.34592,1.49935 -4.13244,12.29792 6.6142,3.04614 -1.73009,0.96593 v 2.6276 l 4.30975,-2.40535 2.87932,1.32604 -1.92088,1.07232 v 1.70811 l -6.80049,3.79531 v 2.6276 l 12.97767,-7.243 1.92188,0.88502 h 1.59474 l 1.93786,-0.89251 12.97767,7.243 v -2.6276 l -6.80049,-3.79531 v -1.70812 l -1.92088,-1.07231 2.84086,-1.30806 4.49054,2.50624 v -2.6276 l -1.91139,-1.06683 6.63718,-3.05662 -4.13244,-12.29792 h -1.72959 l 3.81978,11.36795 -16.2091,7.46525 h -1.59474 l -16.20911,-7.5187 3.8013,-11.3145 z m 4.51752,0.5409 c 0.0295,3.1e-4 0.0641,0.009 0.10338,0.0285 l 8.05461,4.00058 c 0.31445,0.15618 0.0858,0.65578 -0.22725,0.49695 l -7.82736,-3.97061 c -0.27399,-0.13899 -0.30952,-0.55756 -0.10338,-0.55539 z m 20.79804,0 c 0.20612,-0.002 0.17059,0.4164 -0.10339,0.55539 l -7.82736,3.97061 c -0.31317,0.15883 -0.54171,-0.34077 -0.22725,-0.49695 l 8.05461,-4.00058 c 0.0393,-0.0198 0.0739,-0.0282 0.10339,-0.0285 z m -21.17762,1.20117 c 0.0294,3.5e-4 0.0641,0.01 0.10338,0.029 l 8.43419,4.20286 c 0.0196,0.01 0.0369,0.0208 0.0524,0.033 0.0154,0.0121 0.0294,0.0259 0.041,0.04 0.0232,0.0283 0.0385,0.0597 0.0474,0.0929 v 5e-4 c 0.009,0.033 0.0118,0.0675 0.008,0.10138 v 5.1e-4 c -7.5e-4,0.007 -0.005,0.0137 -0.006,0.021 -0.0107,0.0602 -0.0361,0.11808 -0.0774,0.16132 h -5e-4 v 5e-4 c -0.0461,0.0483 -0.10886,0.0787 -0.1798,0.0764 -0.0356,-9.7e-4 -0.0733,-0.0106 -0.11238,-0.0305 l -7.82736,-3.97061 c -0.0169,-0.009 -0.0294,-0.0219 -0.0444,-0.0325 l -0.33513,-0.17031 c -0.27384,-0.13924 -0.30938,-0.5578 -0.10338,-0.55539 z m 21.5572,0 c 0.206,-0.002 0.17046,0.41615 -0.10339,0.55539 l -0.33513,0.17031 c -0.0151,0.0105 -0.0275,0.0238 -0.0445,0.0325 l -7.82736,3.97061 c -0.0391,0.0199 -0.0768,0.0295 -0.11237,0.0305 -0.0709,0.002 -0.1337,-0.0286 -0.17981,-0.0769 v -5e-4 h -5e-4 c -0.0413,-0.0432 -0.0667,-0.10111 -0.0774,-0.16132 -9.7e-4,-0.007 -0.005,-0.0142 -0.006,-0.021 v -4.9e-4 c -0.004,-0.0339 -10e-4,-0.0683 0.007,-0.10139 v -5e-4 c 0.009,-0.0332 0.0242,-0.0646 0.0474,-0.0929 0.0116,-0.014 0.026,-0.0274 0.0414,-0.0395 0.0156,-0.0122 0.0328,-0.0232 0.0524,-0.033 l 8.43419,-4.20286 c 0.0393,-0.0193 0.0739,-0.0286 0.10339,-0.029 z m -21.94577,1.23064 c 0.0295,2.9e-4 0.0636,0.009 0.10288,0.0285 l 0.74518,0.36959 c 0.009,0.004 0.0146,0.002 0.0235,0.007 l 8.05461,4.00058 c 0.0393,0.0195 0.0702,0.0447 0.0934,0.0729 0.0695,0.0848 0.071,0.19993 0.0285,0.29318 v 5e-4 c -0.057,0.12429 -0.19262,0.20949 -0.34912,0.13035 l -8.59601,-4.3467 c -0.27416,-0.13863 -0.30909,-0.5574 -0.10288,-0.55539 z m 22.33434,0 c 0.20619,-0.002 0.17128,0.41676 -0.10289,0.55539 l -8.59601,4.3467 c -0.1565,0.0791 -0.29209,-0.006 -0.34911,-0.13035 v -5e-4 c -0.0426,-0.0932 -0.041,-0.20842 0.0285,-0.29318 0.0232,-0.0282 0.0541,-0.0534 0.0934,-0.0729 l 8.05461,-4.00058 c 0.009,-0.005 0.0148,-0.003 0.0235,-0.007 l 0.74518,-0.36959 c 0.0393,-0.0198 0.0734,-0.0282 0.10289,-0.0285 z m 0.37558,1.18769 c 0.20595,-0.003 0.17046,0.41614 -0.10338,0.55539 l -1.09729,0.55788 c -0.0157,0.0111 -0.0293,0.0253 -0.0469,0.034 l -7.82736,3.97061 c -0.0196,0.01 -0.0392,0.0171 -0.0579,0.022 -0.0186,0.005 -0.0368,0.008 -0.0544,0.009 -0.0709,0.002 -0.1337,-0.0281 -0.17981,-0.0764 v -5e-4 h -4.9e-4 c -0.0696,-0.0726 -0.1021,-0.18485 -0.0754,-0.28418 v -5e-4 c 0.0134,-0.0497 0.0423,-0.0962 0.0889,-0.13286 0.0156,-0.0123 0.0328,-0.0232 0.0524,-0.033 l 9.19835,-4.59193 c 0.0393,-0.0193 0.074,-0.0286 0.10338,-0.029 z m -23.08551,5e-4 c 0.0294,3.6e-4 0.0641,0.01 0.10338,0.029 l 9.19835,4.59193 c 0.0196,0.01 0.0369,0.0207 0.0524,0.033 0.0466,0.0366 0.0749,0.0831 0.0884,0.13286 v 5e-4 c 0.0267,0.0993 -0.006,0.21153 -0.0754,0.28418 h -5e-4 v 5e-4 c -0.0461,0.0483 -0.10886,0.0787 -0.1798,0.0764 -0.0177,-6.5e-4 -0.0359,-0.004 -0.0544,-0.009 -0.0187,-0.005 -0.0384,-0.0121 -0.0579,-0.022 l -7.82736,-3.97061 c -0.0177,-0.009 -0.0307,-0.0224 -0.0465,-0.0335 l -1.09729,-0.55788 c -0.27384,-0.13925 -0.30932,-0.55791 -0.10338,-0.55539 z m -0.38408,1.21566 c 0.0294,3.6e-4 0.0641,0.01 0.10339,0.029 l 9.58242,4.78022 c 0.0196,0.01 0.0369,0.0208 0.0524,0.033 0.0466,0.0366 0.0749,0.0831 0.0884,0.13286 0.009,0.0332 0.0118,0.0677 0.008,0.10189 -0.007,0.0682 -0.0376,0.13429 -0.0839,0.18279 -0.01,0.0101 -0.0225,0.0156 -0.0335,0.024 -0.0679,0.0523 -0.15758,0.0738 -0.25872,0.0225 l -7.82736,-3.97061 c -0.008,-0.004 -0.0124,-0.01 -0.0195,-0.014 l -1.50833,-0.76615 c -0.27393,-0.1391 -0.30937,-0.55784 -0.10339,-0.55539 z m 23.85367,0 c 0.20599,-0.002 0.17055,0.41629 -0.10338,0.55539 l -1.50834,0.76615 c -0.007,0.004 -0.0117,0.0101 -0.0195,0.014 l -7.82736,3.97061 c -0.10114,0.0513 -0.19077,0.0298 -0.25871,-0.0225 -0.0109,-0.008 -0.0238,-0.0139 -0.0335,-0.024 -0.0463,-0.0485 -0.0771,-0.11456 -0.0839,-0.18279 -0.004,-0.0341 -10e-4,-0.0687 0.007,-0.10189 0.0134,-0.0497 0.0423,-0.0962 0.0889,-0.13286 0.0156,-0.0122 0.0328,-0.0232 0.0524,-0.033 l 9.58243,-4.78022 c 0.0393,-0.0193 0.0739,-0.0286 0.10338,-0.029 z m 0.38607,1.22315 c 0.2061,-0.002 0.17123,0.41666 -0.10288,0.55539 l -9.74225,4.93105 c -0.23495,0.11891 -0.42192,-0.13225 -0.36809,-0.33113 0.009,-0.0332 0.0242,-0.0646 0.0474,-0.0929 0.0116,-0.014 0.026,-0.0274 0.0414,-0.0395 0.0156,-0.0122 0.0328,-0.0232 0.0524,-0.033 l 9.9695,-4.96052 c 0.0393,-0.0193 0.0734,-0.0286 0.10288,-0.029 z m -24.62631,5e-4 c 0.0295,3.2e-4 0.0636,0.01 0.10289,0.029 l 9.96949,4.96052 c 0.0196,0.01 0.0369,0.0208 0.0524,0.033 0.0154,0.0121 0.0294,0.0255 0.041,0.0395 0.0232,0.0283 0.0385,0.0602 0.0474,0.0934 0.0538,0.19888 -0.13314,0.45004 -0.3681,0.33113 l -9.74224,-4.93105 c -0.27411,-0.13873 -0.30898,-0.55761 -0.10289,-0.55539 z m 25.00839,1.20817 c 0.20607,-0.002 0.17071,0.4171 -0.10338,0.55588 l -10.12383,5.12534 c -0.23493,0.11895 -0.42192,-0.13172 -0.36809,-0.33063 0.009,-0.0332 0.0242,-0.0646 0.0474,-0.0929 0.0116,-0.014 0.026,-0.0274 0.0414,-0.0394 0.0156,-0.0122 0.0328,-0.0232 0.0524,-0.033 l 10.35108,-5.15581 c 0.0393,-0.0193 0.0739,-0.0286 0.10338,-0.029 z m -25.39047,4.9e-4 c 0.0295,3.3e-4 0.0641,0.01 0.10339,0.029 l 10.35107,5.15581 c 0.0196,0.01 0.0369,0.0208 0.0524,0.033 0.0154,0.0121 0.0294,0.0254 0.041,0.0394 0.0232,0.0283 0.0385,0.0603 0.0474,0.0934 0.0538,0.19891 -0.13316,0.44958 -0.3681,0.33063 l -10.12382,-5.12534 c -0.2741,-0.13878 -0.30945,-0.55818 -0.10339,-0.55589 z m -0.38707,1.22565 v 5e-4 c 0.0295,3e-4 0.0636,0.009 0.10289,0.0285 l 10.73864,5.33411 c 0.11791,0.0586 0.15937,0.16498 0.14884,0.26721 v 5e-4 c -0.004,0.0339 -0.0129,0.0675 -0.027,0.0984 v 5e-4 c -0.0142,0.0309 -0.0334,0.0592 -0.0564,0.0834 v 5e-4 c -0.0134,0.0141 -0.0309,0.0227 -0.047,0.0335 -0.0114,0.008 -0.0209,0.0184 -0.0335,0.024 h -5e-4 c -0.005,0.002 -0.011,10e-4 -0.016,0.003 -0.0418,0.0152 -0.0876,0.0212 -0.13785,0.007 -0.0189,-0.005 -0.0384,-0.0125 -0.0579,-0.0225 l -10.51139,-5.30364 c -0.27428,-0.1384 -0.30907,-0.55744 -0.10289,-0.55539 z m 26.16461,0 c 0.20619,-0.002 0.1714,0.41699 -0.10288,0.55539 l -10.5114,5.30364 c -0.0195,0.01 -0.0386,0.0177 -0.0574,0.0225 -0.0503,0.0137 -0.096,0.007 -0.13785,-0.008 -0.005,-0.002 -0.0112,-5.7e-4 -0.016,-0.002 h -5e-4 c -0.0126,-0.006 -0.0221,-0.0162 -0.0335,-0.024 -0.016,-0.0107 -0.0335,-0.0194 -0.0469,-0.0335 v -5e-4 c -0.023,-0.0242 -0.0422,-0.0525 -0.0564,-0.0834 v -5e-4 c -0.0141,-0.0309 -0.0231,-0.0645 -0.027,-0.0984 v -5e-4 c -0.0105,-0.10223 0.0309,-0.20864 0.14883,-0.26721 l 10.73865,-5.33411 c 0.0393,-0.0198 0.0734,-0.0282 0.10288,-0.0285 z"
         id="path4780" />
      <path
         id="path4782"
         d="m 50.683464,119.10383 -3.411353,10.15296 12.310972,5.6697 V 123.6477 Z m 19.134094,0 -8.899616,4.54387 v 11.27879 l 12.310969,-5.6697 z m -22.052555,1.25502 -3.459012,10.29384 5.53634,2.54973 -1.448152,0.80852 v 2.19941 l 3.607424,-2.01337 2.410102,1.10994 -1.607851,0.89758 v 1.42975 l -5.692276,3.17682 v 2.19941 l 10.862817,-6.06268 1.608688,0.7408 h 1.334859 l 1.622063,-0.74707 10.862818,6.06268 v -2.19941 l -5.692277,-3.17682 v -1.42976 l -1.607851,-0.89757 2.377915,-1.09489 3.758757,2.09781 v -2.1994 l -1.599908,-0.89297 5.555573,-2.55851 -3.459011,-10.29384 h -1.447736 l 3.197307,9.51541 -13.56765,6.24871 h -1.334859 l -13.567652,-6.29344 3.181837,-9.47068 z m 3.781332,0.45276 c 0.02468,2.5e-4 0.05364,0.007 0.08654,0.0238 l 6.74202,3.34864 c 0.263206,0.13073 0.07184,0.54892 -0.190217,0.41597 l -6.551803,-3.32356 c -0.229342,-0.11634 -0.259081,-0.4667 -0.08654,-0.46487 z m 17.408769,0 c 0.172534,-0.002 0.142796,0.34853 -0.08654,0.46487 l -6.551804,3.32356 c -0.262138,0.13295 -0.45343,-0.28524 -0.190217,-0.41597 l 6.742021,-3.34864 c 0.0329,-0.0166 0.06186,-0.0235 0.08654,-0.0238 z m -17.726491,1.00542 c 0.02459,2.9e-4 0.05363,0.008 0.08654,0.0243 l 7.059746,3.51796 c 0.01642,0.008 0.03087,0.0174 0.0439,0.0276 0.01286,0.0101 0.02458,0.0217 0.03428,0.0335 0.01942,0.0237 0.03219,0.05 0.03971,0.0778 v 4.2e-4 c 0.0073,0.0277 0.0098,0.0565 0.0067,0.0849 v 4.2e-4 c -6.23e-4,0.006 -0.0042,0.0115 -0.005,0.0175 -0.009,0.0504 -0.03026,0.0989 -0.0648,0.13504 h -4.2e-4 v 4.1e-4 c -0.03859,0.0405 -0.09112,0.0659 -0.1505,0.064 -0.02977,-8.1e-4 -0.06132,-0.009 -0.09406,-0.0255 l -6.551803,-3.32356 c -0.01416,-0.007 -0.02459,-0.0184 -0.03721,-0.0272 L 51.31517,122.282 c -0.229219,-0.11656 -0.258964,-0.46691 -0.08654,-0.46488 z m 18.044216,0 c 0.172428,-0.002 0.142681,0.34833 -0.08654,0.46489 l -0.280517,0.14255 c -0.01262,0.009 -0.02305,0.0199 -0.03721,0.0272 l -6.551804,3.32356 c -0.03274,0.0167 -0.06429,0.0247 -0.09406,0.0255 -0.05938,0.002 -0.111911,-0.0239 -0.150502,-0.0644 v -4.2e-4 h -4.17e-4 c -0.03454,-0.0362 -0.05582,-0.0846 -0.0648,-0.13503 -8.09e-4,-0.006 -0.0044,-0.0119 -0.005,-0.0175 v -4.2e-4 c -0.0032,-0.0284 -9.71e-4,-0.0572 0.0063,-0.0849 v -4.2e-4 c 0.0075,-0.0277 0.02022,-0.054 0.03971,-0.0777 0.0097,-0.0117 0.02175,-0.0229 0.0347,-0.033 0.01302,-0.0102 0.02747,-0.0194 0.0439,-0.0276 l 7.059744,-3.51796 c 0.0329,-0.0162 0.06186,-0.0239 0.08654,-0.0243 z m -18.369465,1.0301 c 0.02467,2.4e-4 0.05322,0.007 0.08612,0.0239 l 0.623742,0.30936 c 0.0073,0.003 0.01221,0.002 0.01965,0.006 l 6.74202,3.34864 c 0.03293,0.0164 0.05876,0.0375 0.07817,0.0611 0.05817,0.0709 0.05943,0.16735 0.02383,0.2454 v 4.2e-4 c -0.04773,0.10403 -0.161224,0.17535 -0.292224,0.10911 l -7.195194,-3.63836 c -0.229487,-0.11604 -0.258719,-0.46656 -0.08612,-0.46488 z m 18.694714,0 c 0.172589,-0.002 0.143366,0.34883 -0.08612,0.46487 l -7.195196,3.63836 c -0.131001,0.0663 -0.244492,-0.005 -0.292222,-0.10911 v -4.2e-4 c -0.03568,-0.0781 -0.03434,-0.17445 0.02383,-0.2454 0.01942,-0.0236 0.04525,-0.0447 0.07817,-0.0611 l 6.742021,-3.34864 c 0.0074,-0.004 0.01237,-0.002 0.01965,-0.006 l 0.623744,-0.30936 c 0.03289,-0.0166 0.06144,-0.0236 0.08612,-0.0239 z m 0.314379,0.99413 c 0.172388,-0.002 0.142681,0.34833 -0.08654,0.46489 l -0.918473,0.46697 c -0.01319,0.009 -0.0245,0.0211 -0.0393,0.0284 l -6.551803,3.32356 c -0.01642,0.008 -0.03281,0.0143 -0.04849,0.0184 -0.01553,0.004 -0.03077,0.007 -0.04557,0.007 -0.05937,0.002 -0.111914,-0.0235 -0.150502,-0.064 v -4.1e-4 h -4.17e-4 c -0.05825,-0.0608 -0.08546,-0.15473 -0.06313,-0.23788 v -4.2e-4 c 0.01125,-0.0417 0.03542,-0.0806 0.07441,-0.1112 0.01302,-0.0103 0.02747,-0.0194 0.0439,-0.0276 l 7.699372,-3.84363 c 0.0329,-0.0162 0.06195,-0.0239 0.08654,-0.0243 z m -19.323472,4.2e-4 c 0.02459,3e-4 0.05363,0.008 0.08654,0.0243 l 7.699374,3.84363 c 0.01642,0.008 0.03087,0.0173 0.0439,0.0276 0.03899,0.0307 0.06267,0.0696 0.074,0.11121 v 4.2e-4 c 0.02233,0.0832 -0.0049,0.17706 -0.06312,0.23787 h -4.2e-4 v 4.2e-4 c -0.03859,0.0405 -0.09112,0.0659 -0.1505,0.064 -0.01481,-5.4e-4 -0.03004,-0.003 -0.04557,-0.007 -0.01569,-0.004 -0.03216,-0.0101 -0.0485,-0.0184 l -6.551802,-3.32356 c -0.0148,-0.007 -0.02569,-0.0187 -0.03888,-0.028 l -0.918475,-0.46698 c -0.229219,-0.11656 -0.258918,-0.46699 -0.08654,-0.46488 z m -0.321489,1.01756 c 0.02459,3e-4 0.05363,0.008 0.08654,0.0243 l 8.02086,4.00123 c 0.01642,0.008 0.03087,0.0174 0.0439,0.0276 0.03899,0.0307 0.06267,0.0696 0.074,0.1112 0.0073,0.0277 0.0098,0.0567 0.0067,0.0853 -0.0057,0.0571 -0.03149,0.1124 -0.07024,0.153 -0.0081,0.008 -0.01887,0.013 -0.02801,0.0201 -0.05687,0.0438 -0.131893,0.0617 -0.216554,0.0188 l -6.551803,-3.32356 c -0.0065,-0.003 -0.01039,-0.008 -0.0163,-0.0117 l -1.262536,-0.6413 c -0.229291,-0.11643 -0.25895,-0.46692 -0.08654,-0.46488 z m 19.966447,0 c 0.172421,-0.002 0.142756,0.34845 -0.08654,0.46488 l -1.262536,0.6413 c -0.0059,0.003 -0.0098,0.008 -0.0163,0.0117 l -6.551804,3.32356 c -0.08466,0.043 -0.159683,0.025 -0.216554,-0.0188 -0.0091,-0.007 -0.01992,-0.0117 -0.02801,-0.0201 -0.03875,-0.0406 -0.06457,-0.0959 -0.07024,-0.15301 -0.0032,-0.0285 -9.71e-4,-0.0575 0.0063,-0.0853 0.01125,-0.0417 0.03542,-0.0806 0.07441,-0.1112 0.01302,-0.0102 0.02747,-0.0194 0.0439,-0.0276 l 8.020861,-4.00123 c 0.0329,-0.0162 0.06186,-0.0239 0.08654,-0.0243 z m 0.32316,1.02382 c 0.17251,-0.002 0.143325,0.34876 -0.08612,0.46488 l -8.154637,4.12749 c -0.196665,0.0995 -0.353169,-0.1107 -0.308108,-0.27718 0.0075,-0.0277 0.02022,-0.054 0.03971,-0.0777 0.0097,-0.0117 0.02175,-0.0229 0.0347,-0.033 0.01302,-0.0102 0.02747,-0.0194 0.0439,-0.0276 l 8.344854,-4.15216 c 0.03289,-0.0162 0.06144,-0.0239 0.08612,-0.0243 z m -20.613184,4.2e-4 c 0.02467,2.7e-4 0.05323,0.008 0.08612,0.0243 l 8.344855,4.15216 c 0.01642,0.008 0.03087,0.0174 0.0439,0.0276 0.01286,0.0101 0.02458,0.0213 0.03428,0.033 0.01942,0.0237 0.03219,0.0504 0.03971,0.0781 0.04506,0.16647 -0.111443,0.3767 -0.30811,0.27718 l -8.154637,-4.12749 c -0.229437,-0.11613 -0.258629,-0.46674 -0.08612,-0.46488 z m 20.932999,1.01128 c 0.172484,-0.002 0.142892,0.34914 -0.08654,0.4653 l -8.474034,4.29011 c -0.19665,0.0996 -0.353169,-0.11025 -0.308108,-0.27675 0.0075,-0.0277 0.02022,-0.054 0.03971,-0.0778 0.0097,-0.0117 0.02175,-0.0229 0.0347,-0.033 0.01302,-0.0102 0.02747,-0.0194 0.0439,-0.0276 l 8.664252,-4.31561 c 0.0329,-0.0162 0.06186,-0.0239 0.08654,-0.0243 z m -21.252813,4.2e-4 c 0.02468,2.8e-4 0.05364,0.008 0.08654,0.0243 l 8.664251,4.31561 c 0.01642,0.008 0.03087,0.0174 0.0439,0.0276 0.01286,0.0101 0.02458,0.0213 0.03428,0.033 0.01942,0.0237 0.03219,0.0504 0.03971,0.0781 0.04506,0.16649 -0.11146,0.37631 -0.30811,0.27675 l -8.474034,-4.2901 c -0.229429,-0.11617 -0.259022,-0.46722 -0.08654,-0.4653 z m -0.323994,1.02592 v 4.1e-4 c 0.02467,2.5e-4 0.05324,0.007 0.08612,0.0239 l 8.988663,4.46486 c 0.0987,0.049 0.133398,0.13809 0.124581,0.22366 v 4.2e-4 c -0.0032,0.0284 -0.01077,0.0565 -0.02258,0.0824 v 4.2e-4 c -0.01189,0.0259 -0.02798,0.0496 -0.04724,0.0698 v 4.2e-4 c -0.01125,0.0118 -0.02587,0.019 -0.0393,0.028 -0.0095,0.006 -0.01749,0.0154 -0.02801,0.0201 h -4.17e-4 c -0.004,0.002 -0.0092,8.1e-4 -0.01338,0.002 -0.03503,0.0127 -0.0733,0.0178 -0.115384,0.006 -0.01577,-0.004 -0.03216,-0.0105 -0.0485,-0.0188 l -8.798446,-4.43936 c -0.229576,-0.11584 -0.258701,-0.46659 -0.08612,-0.46488 z m 21.9008,0 c 0.172583,-0.002 0.143464,0.34903 -0.08612,0.46487 l -8.798448,4.43936 c -0.01634,0.008 -0.0323,0.0147 -0.04808,0.0188 -0.04209,0.0115 -0.08036,0.006 -0.115384,-0.006 -0.0042,-0.002 -0.0093,-4.8e-4 -0.01338,-0.002 h -4.2e-4 c -0.01052,-0.005 -0.01846,-0.0136 -0.02801,-0.0201 -0.01343,-0.009 -0.02805,-0.0162 -0.03929,-0.028 v -4.1e-4 c -0.01925,-0.0202 -0.03534,-0.0439 -0.04724,-0.0698 v -4.2e-4 c -0.01181,-0.0259 -0.01934,-0.054 -0.02258,-0.0824 v -4.2e-4 c -0.0088,-0.0856 0.02588,-0.17463 0.124581,-0.22366 l 8.988664,-4.46486 c 0.03289,-0.0166 0.06144,-0.0235 0.08612,-0.0239 z"
         style="opacity:1;fill:#ffffff;fill-opacity:1;stroke:none;stroke-width:0.32060057;stroke-linecap:round;stroke-linejoin:round;stroke-miterlimit:4;stroke-dasharray:none;stroke-dashoffset:0;stroke-opacity:0"
         inkscape:connector-curvature="0" />
    </g>
    <g
       id="g4507"
       transform="matrix(0.5858434,0,0,0.5858434,65.666525,16.266144)">
      <path
         style="opacity:1;fill:#102747;fill-opacity:1;stroke:none;stroke-width:0.25195202;stroke-linecap:round;stroke-linejoin:round;stroke-miterlimit:4;stroke-dasharray:none;stroke-dashoffset:0;stroke-opacity:0"
         d="m 116.47106,106.39878 a 24.388053,24.388053 0 0 0 -24.388173,24.38818 24.388053,24.388053 0 0 0 24.388173,24.38817 24.388053,24.388053 0 0 0 24.38766,-24.38817 24.388053,24.388053 0 0 0 -24.38766,-24.38818 z m 0,0.93379 a 23.45409,23.45409 0 0 1 23.45387,23.45439 23.45409,23.45409 0 0 1 -23.45387,23.45386 23.45409,23.45409 0 0 1 -23.454382,-23.45386 23.45409,23.45409 0 0 1 23.454382,-23.45439 z m 0,0.26717 a 23.187244,23.187244 0 0 0 -23.187213,23.18722 23.187244,23.187244 0 0 0 23.187213,23.18721 23.187244,23.187244 0 0 0 23.18722,-23.18721 23.187244,23.187244 0 0 0 -23.18722,-23.18722 z"
         id="path6443"
         inkscape:connector-curvature="0" />
      <path
         id="path4799"
         transform="scale(0.26458333)"
         d="m 405.82617,452.73242 -2.59961,7.73828 -3.00586,-3.00586 h -5.40234 l -13.04492,38.82422 15.41797,15.41797 V 517.25 l 9.40429,9.40234 -14.24218,7.94922 v 8.29492 l 25.10937,25.10938 18.25977,18.25781 a 92.175322,92.175322 0 0 0 4.48242,0.22461 92.175322,92.175322 0 0 0 86.54492,-60.78711 l -1.06641,-1.0664 1.82618,-1.01954 a 92.175322,92.175322 0 0 0 4.55859,-23.07812 l -17.25391,-17.25391 -25.8164,-25.81836 h -5.46094 l 0.41211,1.22461 -5.95899,-5.95703 -33.56445,17.13672 v 5.03516 l -5.03516,-5.03516 z"
         style="opacity:0.3;fill:#000000;fill-opacity:1;stroke:none;stroke-width:1.20915639;stroke-linecap:round;stroke-linejoin:round;stroke-miterlimit:4;stroke-dasharray:none;stroke-dashoffset:0;stroke-opacity:0"
         inkscape:connector-curvature="0" />
      <path
         id="path4719"
         d="m 107.37474,119.7853 -3.40413,10.13149 12.28493,5.65771 v -11.25494 z m 19.09364,0 -8.8808,4.53426 v 11.25494 l 12.28494,-5.65771 z m -22.00593,1.25236 -3.45169,10.27207 5.52463,2.54434 -1.44509,0.80681 v 2.19476 l 3.59979,-2.00911 2.40501,1.10759 -1.60445,0.89568 v 1.42673 l -5.68024,3.17011 v 2.19475 l 10.83985,-6.04986 1.60528,0.73924 h 1.33204 l 1.61864,-0.7455 10.83984,6.04986 v -2.19475 l -5.68024,-3.1701 v -1.42674 l -1.60445,-0.89567 2.37289,-1.09258 3.7508,2.09338 v -2.19476 l -1.59652,-0.89108 5.54383,-2.5531 -3.4517,-10.27207 H 127.936 l 3.19054,9.49529 -13.53896,6.2355 h -1.33204 l -13.53896,-6.28013 3.17512,-9.45066 z m 3.77334,0.4518 c 0.0246,2.1e-4 0.0535,0.007 0.0864,0.0237 l 6.72776,3.34157 c 0.26266,0.13044 0.0717,0.54775 -0.18981,0.41508 l -6.53795,-3.31652 c -0.22885,-0.1161 -0.25854,-0.46572 -0.0864,-0.4639 z m 17.37195,0 c 0.17217,-0.002 0.14251,0.3478 -0.0863,0.4639 l -6.53796,3.31652 c -0.26158,0.13267 -0.45246,-0.28464 -0.18981,-0.41508 l 6.72777,-3.34157 c 0.0328,-0.0165 0.0618,-0.0235 0.0863,-0.0237 z m -17.68899,1.0033 c 0.0245,2.1e-4 0.0535,0.008 0.0863,0.0242 l 7.04482,3.51052 c 0.0164,0.008 0.0308,0.0174 0.0438,0.0275 0.0128,0.0101 0.0246,0.0216 0.0342,0.0334 0.0194,0.0237 0.0321,0.0499 0.0396,0.0776 v 4.3e-4 c 0.007,0.0276 0.01,0.0563 0.006,0.0847 v 4.3e-4 c -6.5e-4,0.006 -0.004,0.0115 -0.005,0.0175 -0.009,0.0503 -0.0302,0.0986 -0.0647,0.13474 h -4.3e-4 v 4.3e-4 c -0.0385,0.0404 -0.0909,0.0658 -0.15017,0.0639 -0.0297,-8e-4 -0.0612,-0.009 -0.0939,-0.0254 l -6.53794,-3.31653 c -0.0141,-0.007 -0.0246,-0.0183 -0.0371,-0.0271 l -0.27992,-0.14225 c -0.22874,-0.11631 -0.25842,-0.46592 -0.0864,-0.4639 z m 18.00605,0 c 0.17207,-0.002 0.14238,0.34759 -0.0864,0.4639 l -0.27993,0.14225 c -0.0126,0.009 -0.023,0.0199 -0.0371,0.0271 l -6.53796,3.31653 c -0.0327,0.0166 -0.0642,0.0246 -0.0939,0.0254 -0.0593,0.002 -0.11167,-0.0239 -0.15018,-0.0643 v -4.3e-4 h -4.3e-4 c -0.0345,-0.0361 -0.0557,-0.0845 -0.0647,-0.13474 -8.1e-4,-0.006 -0.004,-0.0119 -0.005,-0.0175 v -4.3e-4 c -0.003,-0.0283 -8.1e-4,-0.0571 0.006,-0.0847 v -4.3e-4 c 0.007,-0.0277 0.0202,-0.0539 0.0396,-0.0776 0.01,-0.0117 0.0217,-0.0228 0.0346,-0.0329 0.013,-0.0102 0.0274,-0.0194 0.0438,-0.0275 l 7.04482,-3.51052 c 0.0328,-0.0161 0.0617,-0.0239 0.0863,-0.0242 z m -18.33062,1.02792 c 0.0246,2.1e-4 0.0531,0.007 0.0859,0.0238 l 0.62242,0.3087 c 0.007,0.003 0.0122,0.002 0.0196,0.006 l 6.72776,3.34156 c 0.0328,0.0163 0.0586,0.0374 0.078,0.0609 0.058,0.0708 0.0593,0.16699 0.0237,0.24488 v 4.2e-4 c -0.0476,0.10382 -0.16087,0.17498 -0.29159,0.10888 l -7.17998,-3.63067 c -0.229,-0.1158 -0.25818,-0.46558 -0.0859,-0.4639 z m 18.65518,0 c 0.17223,-0.002 0.14306,0.34809 -0.0859,0.46389 l -7.17999,3.63067 c -0.13072,0.0661 -0.24397,-0.005 -0.2916,-0.10888 v -4.3e-4 c -0.0356,-0.0779 -0.0343,-0.17408 0.0237,-0.24488 0.0194,-0.0236 0.0451,-0.0446 0.078,-0.0609 l 6.72777,-3.34156 c 0.007,-0.004 0.0123,-0.002 0.0196,-0.006 l 0.62243,-0.30871 c 0.0329,-0.0165 0.0614,-0.0236 0.0859,-0.0237 z m 0.31372,0.99203 c 0.17202,-0.002 0.14237,0.34759 -0.0864,0.4639 l -0.91653,0.46598 c -0.0132,0.009 -0.0245,0.0211 -0.0392,0.0283 l -6.53795,3.31653 c -0.0164,0.008 -0.0327,0.0143 -0.0484,0.0183 -0.0155,0.004 -0.0307,0.007 -0.0454,0.007 -0.0593,0.002 -0.11168,-0.0235 -0.15019,-0.0639 v -4.3e-4 h -4.3e-4 c -0.0581,-0.0607 -0.0853,-0.15439 -0.063,-0.23736 v -4.3e-4 c 0.0112,-0.0416 0.0354,-0.0804 0.0743,-0.11098 0.013,-0.0103 0.0274,-0.0194 0.0438,-0.0275 l 7.68309,-3.83549 c 0.0329,-0.0161 0.0618,-0.0239 0.0864,-0.0242 z m -19.28261,4.3e-4 c 0.0245,2.2e-4 0.0535,0.008 0.0864,0.0242 l 7.68309,3.83549 c 0.0164,0.008 0.0308,0.0173 0.0438,0.0275 0.0389,0.0306 0.0626,0.0694 0.0739,0.11097 v 4.3e-4 c 0.0223,0.083 -0.005,0.17669 -0.063,0.23737 h -4.3e-4 v 4.3e-4 c -0.0385,0.0404 -0.0909,0.0658 -0.15017,0.0639 -0.0148,-6.4e-4 -0.0299,-0.003 -0.0455,-0.007 -0.0157,-0.004 -0.032,-0.0101 -0.0484,-0.0183 l -6.53794,-3.31653 c -0.0148,-0.007 -0.0257,-0.0187 -0.0388,-0.0279 l -0.91654,-0.46599 c -0.22873,-0.11631 -0.25837,-0.466 -0.0863,-0.4639 z m -0.32081,1.0154 c 0.0245,2.1e-4 0.0535,0.008 0.0863,0.0242 l 8.0039,3.99277 c 0.0164,0.008 0.0308,0.0174 0.0438,0.0275 0.0389,0.0306 0.0626,0.0694 0.0739,0.11097 0.007,0.0277 0.01,0.0566 0.006,0.0851 -0.006,0.057 -0.0314,0.11217 -0.0701,0.15268 -0.008,0.008 -0.0188,0.013 -0.0279,0.02 -0.0567,0.0437 -0.13161,0.0617 -0.2161,0.0188 l -6.53795,-3.31653 c -0.006,-0.003 -0.0104,-0.008 -0.0163,-0.0117 l -1.25987,-0.63994 c -0.22881,-0.11618 -0.2584,-0.46594 -0.0863,-0.4639 z m 19.92423,0 c 0.17205,-0.002 0.14245,0.34772 -0.0864,0.4639 l -1.25987,0.63995 c -0.006,0.003 -0.01,0.008 -0.0163,0.0117 l -6.53795,3.31653 c -0.0845,0.0429 -0.15935,0.0249 -0.2161,-0.0187 -0.009,-0.007 -0.0199,-0.0116 -0.0279,-0.02 -0.0387,-0.0405 -0.0644,-0.0957 -0.0701,-0.15268 -0.003,-0.0285 -8e-4,-0.0574 0.006,-0.0851 0.0112,-0.0415 0.0354,-0.0804 0.0743,-0.11097 0.013,-0.0102 0.0275,-0.0194 0.0438,-0.0275 l 8.0039,-3.99277 c 0.0328,-0.0161 0.0618,-0.0239 0.0863,-0.0242 z m 0.32247,1.02166 c 0.17215,-0.002 0.14302,0.34803 -0.0859,0.46389 l -8.13739,4.11877 c -0.19625,0.0993 -0.35243,-0.11047 -0.30746,-0.27659 0.007,-0.0277 0.0202,-0.0539 0.0396,-0.0776 0.01,-0.0117 0.0217,-0.0229 0.0346,-0.0329 0.013,-0.0102 0.0274,-0.0194 0.0438,-0.0275 l 8.32721,-4.14338 c 0.0328,-0.0161 0.0614,-0.0239 0.0859,-0.0242 z m -20.56959,4.3e-4 c 0.0246,2.1e-4 0.0531,0.008 0.0859,0.0242 l 8.32721,4.14338 c 0.0164,0.008 0.0308,0.0174 0.0438,0.0275 0.0128,0.0101 0.0246,0.0212 0.0342,0.0329 0.0194,0.0236 0.0321,0.0503 0.0396,0.078 0.045,0.16612 -0.1112,0.37591 -0.30745,0.27659 l -8.1374,-4.11876 c -0.22895,-0.11588 -0.25808,-0.46575 -0.0859,-0.4639 z m 20.88873,1.00914 c 0.17212,-0.002 0.14259,0.3484 -0.0864,0.46431 l -8.45611,4.28105 c -0.19623,0.0994 -0.35243,-0.11003 -0.30746,-0.27618 0.007,-0.0277 0.0202,-0.0539 0.0396,-0.0776 0.01,-0.0117 0.0217,-0.0228 0.0346,-0.0329 0.013,-0.0102 0.0274,-0.0194 0.0438,-0.0275 l 8.64593,-4.30649 c 0.0329,-0.0161 0.0618,-0.0239 0.0864,-0.0242 z m -21.20787,4.3e-4 c 0.0246,2.1e-4 0.0535,0.008 0.0864,0.0242 l 8.64593,4.30649 c 0.0164,0.008 0.0308,0.0174 0.0438,0.0275 0.0128,0.0101 0.0246,0.0212 0.0342,0.0329 0.0194,0.0237 0.0321,0.0503 0.0396,0.078 0.045,0.16615 -0.11122,0.37552 -0.30745,0.27617 l -8.45612,-4.28104 c -0.22895,-0.11592 -0.25848,-0.46623 -0.0864,-0.46432 z m -0.32331,1.02374 v 4.3e-4 c 0.0246,2.2e-4 0.0531,0.007 0.0859,0.0238 l 8.96965,4.45542 c 0.0985,0.0489 0.13312,0.1378 0.12432,0.22319 v 4.2e-4 c -0.003,0.0283 -0.0107,0.0564 -0.0225,0.0822 v 4.2e-4 c -0.0119,0.0258 -0.0279,0.0495 -0.0471,0.0697 v 4.3e-4 c -0.0112,0.0118 -0.0258,0.019 -0.0392,0.0279 -0.01,0.006 -0.0174,0.0153 -0.0279,0.02 h -4.3e-4 c -0.004,0.002 -0.009,8.1e-4 -0.0133,0.002 -0.035,0.0127 -0.0731,0.0178 -0.11514,0.006 -0.0157,-0.004 -0.0321,-0.0105 -0.0484,-0.0188 l -8.77984,-4.42997 c -0.22909,-0.1156 -0.25816,-0.4656 -0.0859,-0.4639 z m 21.85448,0 c 0.17222,-0.002 0.14317,0.3483 -0.0859,0.4639 l -8.77984,4.42997 c -0.0163,0.008 -0.0322,0.0147 -0.048,0.0187 -0.042,0.0115 -0.0802,0.006 -0.11515,-0.006 -0.004,-0.002 -0.009,-4.2e-4 -0.0133,-0.002 h -4.2e-4 c -0.0105,-0.005 -0.0184,-0.0136 -0.0279,-0.02 -0.0134,-0.009 -0.028,-0.0161 -0.0392,-0.0279 v -4.3e-4 c -0.0192,-0.0202 -0.0353,-0.0438 -0.0471,-0.0697 v -4.2e-4 c -0.0118,-0.0258 -0.0193,-0.0539 -0.0225,-0.0822 v -4.2e-4 c -0.009,-0.0854 0.0258,-0.17427 0.12432,-0.22319 l 8.96966,-4.45542 c 0.0329,-0.0165 0.0614,-0.0235 0.0859,-0.0237 z"
         style="opacity:1;fill:#ffffff;fill-opacity:1;stroke:none;stroke-width:0.31992263;stroke-linecap:round;stroke-linejoin:round;stroke-miterlimit:4;stroke-dasharray:none;stroke-dashoffset:0;stroke-opacity:0"
         inkscape:connector-curvature="0" />
    </g>
    <g
       transform="matrix(0.69433295,0,0,0.69433295,38.431369,47.784876)"
       id="g4520">
      <path
         style="opacity:1;fill:#102747;fill-opacity:1;stroke:none;stroke-width:0.25195202;stroke-linecap:round;stroke-linejoin:round;stroke-miterlimit:4;stroke-dasharray:none;stroke-dashoffset:0;stroke-opacity:0"
         d="m 60.053051,106.39878 a 24.388053,24.388053 0 0 0 -24.388175,24.38818 24.388053,24.388053 0 0 0 24.388175,24.38817 24.388053,24.388053 0 0 0 24.387656,-24.38817 24.388053,24.388053 0 0 0 -24.387656,-24.38818 z m 0,0.93379 a 23.45409,23.45409 0 0 1 23.453865,23.45439 23.45409,23.45409 0 0 1 -23.453865,23.45386 23.45409,23.45409 0 0 1 -23.454384,-23.45386 23.45409,23.45409 0 0 1 23.454384,-23.45439 z m 0,0.26717 a 23.187244,23.187244 0 0 0 -23.187215,23.18722 23.187244,23.187244 0 0 0 23.187215,23.18721 23.187244,23.187244 0 0 0 23.187215,-23.18721 23.187244,23.187244 0 0 0 -23.187215,-23.18722 z"
         id="path4514"
         inkscape:connector-curvature="0" />
      <path
         id="path4516"
         d="m 106.09937,117.56496 -4.0755,12.12961 14.70777,6.77352 v -13.47462 z m 22.85927,0 -10.63226,5.42851 v 13.47462 l 14.70776,-6.77352 z m -26.34592,1.49935 -4.13244,12.29792 6.6142,3.04614 -1.73009,0.96593 v 2.6276 l 4.30975,-2.40535 2.87932,1.32604 -1.92088,1.07232 v 1.70811 l -6.80049,3.79531 v 2.6276 l 12.97767,-7.243 1.92188,0.88502 h 1.59474 l 1.93786,-0.89251 12.97767,7.243 v -2.6276 l -6.80049,-3.79531 v -1.70812 l -1.92088,-1.07231 2.84086,-1.30806 4.49054,2.50624 v -2.6276 l -1.91139,-1.06683 6.63718,-3.05662 -4.13244,-12.29792 h -1.72959 l 3.81978,11.36795 -16.2091,7.46525 h -1.59474 l -16.20911,-7.5187 3.8013,-11.3145 z m 4.51752,0.5409 c 0.0295,3.1e-4 0.0641,0.009 0.10338,0.0285 l 8.05461,4.00058 c 0.31445,0.15618 0.0858,0.65578 -0.22725,0.49695 l -7.82736,-3.97061 c -0.27399,-0.13899 -0.30952,-0.55756 -0.10338,-0.55539 z m 20.79804,0 c 0.20612,-0.002 0.17059,0.4164 -0.10339,0.55539 l -7.82736,3.97061 c -0.31317,0.15883 -0.54171,-0.34077 -0.22725,-0.49695 l 8.05461,-4.00058 c 0.0393,-0.0198 0.0739,-0.0282 0.10339,-0.0285 z m -21.17762,1.20117 c 0.0294,3.5e-4 0.0641,0.01 0.10338,0.029 l 8.43419,4.20286 c 0.0196,0.01 0.0369,0.0208 0.0524,0.033 0.0154,0.0121 0.0294,0.0259 0.041,0.04 0.0232,0.0283 0.0385,0.0597 0.0474,0.0929 v 5e-4 c 0.009,0.033 0.0118,0.0675 0.008,0.10138 v 5.1e-4 c -7.5e-4,0.007 -0.005,0.0137 -0.006,0.021 -0.0107,0.0602 -0.0361,0.11808 -0.0774,0.16132 h -5e-4 v 5e-4 c -0.0461,0.0483 -0.10886,0.0787 -0.1798,0.0764 -0.0356,-9.7e-4 -0.0733,-0.0106 -0.11238,-0.0305 l -7.82736,-3.97061 c -0.0169,-0.009 -0.0294,-0.0219 -0.0444,-0.0325 l -0.33513,-0.17031 c -0.27384,-0.13924 -0.30938,-0.5578 -0.10338,-0.55539 z m 21.5572,0 c 0.206,-0.002 0.17046,0.41615 -0.10339,0.55539 l -0.33513,0.17031 c -0.0151,0.0105 -0.0275,0.0238 -0.0445,0.0325 l -7.82736,3.97061 c -0.0391,0.0199 -0.0768,0.0295 -0.11237,0.0305 -0.0709,0.002 -0.1337,-0.0286 -0.17981,-0.0769 v -5e-4 h -5e-4 c -0.0413,-0.0432 -0.0667,-0.10111 -0.0774,-0.16132 -9.7e-4,-0.007 -0.005,-0.0142 -0.006,-0.021 v -4.9e-4 c -0.004,-0.0339 -10e-4,-0.0683 0.007,-0.10139 v -5e-4 c 0.009,-0.0332 0.0242,-0.0646 0.0474,-0.0929 0.0116,-0.014 0.026,-0.0274 0.0414,-0.0395 0.0156,-0.0122 0.0328,-0.0232 0.0524,-0.033 l 8.43419,-4.20286 c 0.0393,-0.0193 0.0739,-0.0286 0.10339,-0.029 z m -21.94577,1.23064 c 0.0295,2.9e-4 0.0636,0.009 0.10288,0.0285 l 0.74518,0.36959 c 0.009,0.004 0.0146,0.002 0.0235,0.007 l 8.05461,4.00058 c 0.0393,0.0195 0.0702,0.0447 0.0934,0.0729 0.0695,0.0848 0.071,0.19993 0.0285,0.29318 v 5e-4 c -0.057,0.12429 -0.19262,0.20949 -0.34912,0.13035 l -8.59601,-4.3467 c -0.27416,-0.13863 -0.30909,-0.5574 -0.10288,-0.55539 z m 22.33434,0 c 0.20619,-0.002 0.17128,0.41676 -0.10289,0.55539 l -8.59601,4.3467 c -0.1565,0.0791 -0.29209,-0.006 -0.34911,-0.13035 v -5e-4 c -0.0426,-0.0932 -0.041,-0.20842 0.0285,-0.29318 0.0232,-0.0282 0.0541,-0.0534 0.0934,-0.0729 l 8.05461,-4.00058 c 0.009,-0.005 0.0148,-0.003 0.0235,-0.007 l 0.74518,-0.36959 c 0.0393,-0.0198 0.0734,-0.0282 0.10289,-0.0285 z m 0.37558,1.18769 c 0.20595,-0.003 0.17046,0.41614 -0.10338,0.55539 l -1.09729,0.55788 c -0.0157,0.0111 -0.0293,0.0253 -0.0469,0.034 l -7.82736,3.97061 c -0.0196,0.01 -0.0392,0.0171 -0.0579,0.022 -0.0186,0.005 -0.0368,0.008 -0.0544,0.009 -0.0709,0.002 -0.1337,-0.0281 -0.17981,-0.0764 v -5e-4 h -4.9e-4 c -0.0696,-0.0726 -0.1021,-0.18485 -0.0754,-0.28418 v -5e-4 c 0.0134,-0.0497 0.0423,-0.0962 0.0889,-0.13286 0.0156,-0.0123 0.0328,-0.0232 0.0524,-0.033 l 9.19835,-4.59193 c 0.0393,-0.0193 0.074,-0.0286 0.10338,-0.029 z m -23.08551,5e-4 c 0.0294,3.6e-4 0.0641,0.01 0.10338,0.029 l 9.19835,4.59193 c 0.0196,0.01 0.0369,0.0207 0.0524,0.033 0.0466,0.0366 0.0749,0.0831 0.0884,0.13286 v 5e-4 c 0.0267,0.0993 -0.006,0.21153 -0.0754,0.28418 h -5e-4 v 5e-4 c -0.0461,0.0483 -0.10886,0.0787 -0.1798,0.0764 -0.0177,-6.5e-4 -0.0359,-0.004 -0.0544,-0.009 -0.0187,-0.005 -0.0384,-0.0121 -0.0579,-0.022 l -7.82736,-3.97061 c -0.0177,-0.009 -0.0307,-0.0224 -0.0465,-0.0335 l -1.09729,-0.55788 c -0.27384,-0.13925 -0.30932,-0.55791 -0.10338,-0.55539 z m -0.38408,1.21566 c 0.0294,3.6e-4 0.0641,0.01 0.10339,0.029 l 9.58242,4.78022 c 0.0196,0.01 0.0369,0.0208 0.0524,0.033 0.0466,0.0366 0.0749,0.0831 0.0884,0.13286 0.009,0.0332 0.0118,0.0677 0.008,0.10189 -0.007,0.0682 -0.0376,0.13429 -0.0839,0.18279 -0.01,0.0101 -0.0225,0.0156 -0.0335,0.024 -0.0679,0.0523 -0.15758,0.0738 -0.25872,0.0225 l -7.82736,-3.97061 c -0.008,-0.004 -0.0124,-0.01 -0.0195,-0.014 l -1.50833,-0.76615 c -0.27393,-0.1391 -0.30937,-0.55784 -0.10339,-0.55539 z m 23.85367,0 c 0.20599,-0.002 0.17055,0.41629 -0.10338,0.55539 l -1.50834,0.76615 c -0.007,0.004 -0.0117,0.0101 -0.0195,0.014 l -7.82736,3.97061 c -0.10114,0.0513 -0.19077,0.0298 -0.25871,-0.0225 -0.0109,-0.008 -0.0238,-0.0139 -0.0335,-0.024 -0.0463,-0.0485 -0.0771,-0.11456 -0.0839,-0.18279 -0.004,-0.0341 -10e-4,-0.0687 0.007,-0.10189 0.0134,-0.0497 0.0423,-0.0962 0.0889,-0.13286 0.0156,-0.0122 0.0328,-0.0232 0.0524,-0.033 l 9.58243,-4.78022 c 0.0393,-0.0193 0.0739,-0.0286 0.10338,-0.029 z m 0.38607,1.22315 c 0.2061,-0.002 0.17123,0.41666 -0.10288,0.55539 l -9.74225,4.93105 c -0.23495,0.11891 -0.42192,-0.13225 -0.36809,-0.33113 0.009,-0.0332 0.0242,-0.0646 0.0474,-0.0929 0.0116,-0.014 0.026,-0.0274 0.0414,-0.0395 0.0156,-0.0122 0.0328,-0.0232 0.0524,-0.033 l 9.9695,-4.96052 c 0.0393,-0.0193 0.0734,-0.0286 0.10288,-0.029 z m -24.62631,5e-4 c 0.0295,3.2e-4 0.0636,0.01 0.10289,0.029 l 9.96949,4.96052 c 0.0196,0.01 0.0369,0.0208 0.0524,0.033 0.0154,0.0121 0.0294,0.0255 0.041,0.0395 0.0232,0.0283 0.0385,0.0602 0.0474,0.0934 0.0538,0.19888 -0.13314,0.45004 -0.3681,0.33113 l -9.74224,-4.93105 c -0.27411,-0.13873 -0.30898,-0.55761 -0.10289,-0.55539 z m 25.00839,1.20817 c 0.20607,-0.002 0.17071,0.4171 -0.10338,0.55588 l -10.12383,5.12534 c -0.23493,0.11895 -0.42192,-0.13172 -0.36809,-0.33063 0.009,-0.0332 0.0242,-0.0646 0.0474,-0.0929 0.0116,-0.014 0.026,-0.0274 0.0414,-0.0394 0.0156,-0.0122 0.0328,-0.0232 0.0524,-0.033 l 10.35108,-5.15581 c 0.0393,-0.0193 0.0739,-0.0286 0.10338,-0.029 z m -25.39047,4.9e-4 c 0.0295,3.3e-4 0.0641,0.01 0.10339,0.029 l 10.35107,5.15581 c 0.0196,0.01 0.0369,0.0208 0.0524,0.033 0.0154,0.0121 0.0294,0.0254 0.041,0.0394 0.0232,0.0283 0.0385,0.0603 0.0474,0.0934 0.0538,0.19891 -0.13316,0.44958 -0.3681,0.33063 l -10.12382,-5.12534 c -0.2741,-0.13878 -0.30945,-0.55818 -0.10339,-0.55589 z m -0.38707,1.22565 v 5e-4 c 0.0295,3e-4 0.0636,0.009 0.10289,0.0285 l 10.73864,5.33411 c 0.11791,0.0586 0.15937,0.16498 0.14884,0.26721 v 5e-4 c -0.004,0.0339 -0.0129,0.0675 -0.027,0.0984 v 5e-4 c -0.0142,0.0309 -0.0334,0.0592 -0.0564,0.0834 v 5e-4 c -0.0134,0.0141 -0.0309,0.0227 -0.047,0.0335 -0.0114,0.008 -0.0209,0.0184 -0.0335,0.024 h -5e-4 c -0.005,0.002 -0.011,10e-4 -0.016,0.003 -0.0418,0.0152 -0.0876,0.0212 -0.13785,0.007 -0.0189,-0.005 -0.0384,-0.0125 -0.0579,-0.0225 l -10.51139,-5.30364 c -0.27428,-0.1384 -0.30907,-0.55744 -0.10289,-0.55539 z m 26.16461,0 c 0.20619,-0.002 0.1714,0.41699 -0.10288,0.55539 l -10.5114,5.30364 c -0.0195,0.01 -0.0386,0.0177 -0.0574,0.0225 -0.0503,0.0137 -0.096,0.007 -0.13785,-0.008 -0.005,-0.002 -0.0112,-5.7e-4 -0.016,-0.002 h -5e-4 c -0.0126,-0.006 -0.0221,-0.0162 -0.0335,-0.024 -0.016,-0.0107 -0.0335,-0.0194 -0.0469,-0.0335 v -5e-4 c -0.023,-0.0242 -0.0422,-0.0525 -0.0564,-0.0834 v -5e-4 c -0.0141,-0.0309 -0.0231,-0.0645 -0.027,-0.0984 v -5e-4 c -0.0105,-0.10223 0.0309,-0.20864 0.14883,-0.26721 l 10.73865,-5.33411 c 0.0393,-0.0198 0.0734,-0.0282 0.10288,-0.0285 z"
         style="opacity:1;fill:#000000;fill-opacity:1;stroke:none;stroke-width:0.38301754;stroke-linecap:round;stroke-linejoin:round;stroke-miterlimit:4;stroke-dasharray:none;stroke-dashoffset:0;stroke-opacity:0;filter:url(#filter4774)"
         inkscape:connector-curvature="0"
         transform="matrix(0.72926402,0,0,0.72926402,-23.702882,36.565647)" />
      <path
         inkscape:connector-curvature="0"
         style="opacity:1;fill:#ffffff;fill-opacity:1;stroke:none;stroke-width:0.32060057;stroke-linecap:round;stroke-linejoin:round;stroke-miterlimit:4;stroke-dasharray:none;stroke-dashoffset:0;stroke-opacity:0"
         d="m 50.683464,119.10383 -3.411353,10.15296 12.310972,5.6697 V 123.6477 Z m 19.134094,0 -8.899616,4.54387 v 11.27879 l 12.310969,-5.6697 z m -22.052555,1.25502 -3.459012,10.29384 5.53634,2.54973 -1.448152,0.80852 v 2.19941 l 3.607424,-2.01337 2.410102,1.10994 -1.607851,0.89758 v 1.42975 l -5.692276,3.17682 v 2.19941 l 10.862817,-6.06268 1.608688,0.7408 h 1.334859 l 1.622063,-0.74707 10.862818,6.06268 v -2.19941 l -5.692277,-3.17682 v -1.42976 l -1.607851,-0.89757 2.377915,-1.09489 3.758757,2.09781 v -2.1994 l -1.599908,-0.89297 5.555573,-2.55851 -3.459011,-10.29384 h -1.447736 l 3.197307,9.51541 -13.56765,6.24871 h -1.334859 l -13.567652,-6.29344 3.181837,-9.47068 z m 3.781332,0.45276 c 0.02468,2.5e-4 0.05364,0.007 0.08654,0.0238 l 6.74202,3.34864 c 0.263206,0.13073 0.07184,0.54892 -0.190217,0.41597 l -6.551803,-3.32356 c -0.229342,-0.11634 -0.259081,-0.4667 -0.08654,-0.46487 z m 17.408769,0 c 0.172534,-0.002 0.142796,0.34853 -0.08654,0.46487 l -6.551804,3.32356 c -0.262138,0.13295 -0.45343,-0.28524 -0.190217,-0.41597 l 6.742021,-3.34864 c 0.0329,-0.0166 0.06186,-0.0235 0.08654,-0.0238 z m -17.726491,1.00542 c 0.02459,2.9e-4 0.05363,0.008 0.08654,0.0243 l 7.059746,3.51796 c 0.01642,0.008 0.03087,0.0174 0.0439,0.0276 0.01286,0.0101 0.02458,0.0217 0.03428,0.0335 0.01942,0.0237 0.03219,0.05 0.03971,0.0778 v 4.2e-4 c 0.0073,0.0277 0.0098,0.0565 0.0067,0.0849 v 4.2e-4 c -6.23e-4,0.006 -0.0042,0.0115 -0.005,0.0175 -0.009,0.0504 -0.03026,0.0989 -0.0648,0.13504 h -4.2e-4 v 4.1e-4 c -0.03859,0.0405 -0.09112,0.0659 -0.1505,0.064 -0.02977,-8.1e-4 -0.06132,-0.009 -0.09406,-0.0255 l -6.551803,-3.32356 c -0.01416,-0.007 -0.02459,-0.0184 -0.03721,-0.0272 L 51.31517,122.282 c -0.229219,-0.11656 -0.258964,-0.46691 -0.08654,-0.46488 z m 18.044216,0 c 0.172428,-0.002 0.142681,0.34833 -0.08654,0.46489 l -0.280517,0.14255 c -0.01262,0.009 -0.02305,0.0199 -0.03721,0.0272 l -6.551804,3.32356 c -0.03274,0.0167 -0.06429,0.0247 -0.09406,0.0255 -0.05938,0.002 -0.111911,-0.0239 -0.150502,-0.0644 v -4.2e-4 h -4.17e-4 c -0.03454,-0.0362 -0.05582,-0.0846 -0.0648,-0.13503 -8.09e-4,-0.006 -0.0044,-0.0119 -0.005,-0.0175 v -4.2e-4 c -0.0032,-0.0284 -9.71e-4,-0.0572 0.0063,-0.0849 v -4.2e-4 c 0.0075,-0.0277 0.02022,-0.054 0.03971,-0.0777 0.0097,-0.0117 0.02175,-0.0229 0.0347,-0.033 0.01302,-0.0102 0.02747,-0.0194 0.0439,-0.0276 l 7.059744,-3.51796 c 0.0329,-0.0162 0.06186,-0.0239 0.08654,-0.0243 z m -18.369465,1.0301 c 0.02467,2.4e-4 0.05322,0.007 0.08612,0.0239 l 0.623742,0.30936 c 0.0073,0.003 0.01221,0.002 0.01965,0.006 l 6.74202,3.34864 c 0.03293,0.0164 0.05876,0.0375 0.07817,0.0611 0.05817,0.0709 0.05943,0.16735 0.02383,0.2454 v 4.2e-4 c -0.04773,0.10403 -0.161224,0.17535 -0.292224,0.10911 l -7.195194,-3.63836 c -0.229487,-0.11604 -0.258719,-0.46656 -0.08612,-0.46488 z m 18.694714,0 c 0.172589,-0.002 0.143366,0.34883 -0.08612,0.46487 l -7.195196,3.63836 c -0.131001,0.0663 -0.244492,-0.005 -0.292222,-0.10911 v -4.2e-4 c -0.03568,-0.0781 -0.03434,-0.17445 0.02383,-0.2454 0.01942,-0.0236 0.04525,-0.0447 0.07817,-0.0611 l 6.742021,-3.34864 c 0.0074,-0.004 0.01237,-0.002 0.01965,-0.006 l 0.623744,-0.30936 c 0.03289,-0.0166 0.06144,-0.0236 0.08612,-0.0239 z m 0.314379,0.99413 c 0.172388,-0.002 0.142681,0.34833 -0.08654,0.46489 l -0.918473,0.46697 c -0.01319,0.009 -0.0245,0.0211 -0.0393,0.0284 l -6.551803,3.32356 c -0.01642,0.008 -0.03281,0.0143 -0.04849,0.0184 -0.01553,0.004 -0.03077,0.007 -0.04557,0.007 -0.05937,0.002 -0.111914,-0.0235 -0.150502,-0.064 v -4.1e-4 h -4.17e-4 c -0.05825,-0.0608 -0.08546,-0.15473 -0.06313,-0.23788 v -4.2e-4 c 0.01125,-0.0417 0.03542,-0.0806 0.07441,-0.1112 0.01302,-0.0103 0.02747,-0.0194 0.0439,-0.0276 l 7.699372,-3.84363 c 0.0329,-0.0162 0.06195,-0.0239 0.08654,-0.0243 z m -19.323472,4.2e-4 c 0.02459,3e-4 0.05363,0.008 0.08654,0.0243 l 7.699374,3.84363 c 0.01642,0.008 0.03087,0.0173 0.0439,0.0276 0.03899,0.0307 0.06267,0.0696 0.074,0.11121 v 4.2e-4 c 0.02233,0.0832 -0.0049,0.17706 -0.06312,0.23787 h -4.2e-4 v 4.2e-4 c -0.03859,0.0405 -0.09112,0.0659 -0.1505,0.064 -0.01481,-5.4e-4 -0.03004,-0.003 -0.04557,-0.007 -0.01569,-0.004 -0.03216,-0.0101 -0.0485,-0.0184 l -6.551802,-3.32356 c -0.0148,-0.007 -0.02569,-0.0187 -0.03888,-0.028 l -0.918475,-0.46698 c -0.229219,-0.11656 -0.258918,-0.46699 -0.08654,-0.46488 z m -0.321489,1.01756 c 0.02459,3e-4 0.05363,0.008 0.08654,0.0243 l 8.02086,4.00123 c 0.01642,0.008 0.03087,0.0174 0.0439,0.0276 0.03899,0.0307 0.06267,0.0696 0.074,0.1112 0.0073,0.0277 0.0098,0.0567 0.0067,0.0853 -0.0057,0.0571 -0.03149,0.1124 -0.07024,0.153 -0.0081,0.008 -0.01887,0.013 -0.02801,0.0201 -0.05687,0.0438 -0.131893,0.0617 -0.216554,0.0188 l -6.551803,-3.32356 c -0.0065,-0.003 -0.01039,-0.008 -0.0163,-0.0117 l -1.262536,-0.6413 c -0.229291,-0.11643 -0.25895,-0.46692 -0.08654,-0.46488 z m 19.966447,0 c 0.172421,-0.002 0.142756,0.34845 -0.08654,0.46488 l -1.262536,0.6413 c -0.0059,0.003 -0.0098,0.008 -0.0163,0.0117 l -6.551804,3.32356 c -0.08466,0.043 -0.159683,0.025 -0.216554,-0.0188 -0.0091,-0.007 -0.01992,-0.0117 -0.02801,-0.0201 -0.03875,-0.0406 -0.06457,-0.0959 -0.07024,-0.15301 -0.0032,-0.0285 -9.71e-4,-0.0575 0.0063,-0.0853 0.01125,-0.0417 0.03542,-0.0806 0.07441,-0.1112 0.01302,-0.0102 0.02747,-0.0194 0.0439,-0.0276 l 8.020861,-4.00123 c 0.0329,-0.0162 0.06186,-0.0239 0.08654,-0.0243 z m 0.32316,1.02382 c 0.17251,-0.002 0.143325,0.34876 -0.08612,0.46488 l -8.154637,4.12749 c -0.196665,0.0995 -0.353169,-0.1107 -0.308108,-0.27718 0.0075,-0.0277 0.02022,-0.054 0.03971,-0.0777 0.0097,-0.0117 0.02175,-0.0229 0.0347,-0.033 0.01302,-0.0102 0.02747,-0.0194 0.0439,-0.0276 l 8.344854,-4.15216 c 0.03289,-0.0162 0.06144,-0.0239 0.08612,-0.0243 z m -20.613184,4.2e-4 c 0.02467,2.7e-4 0.05323,0.008 0.08612,0.0243 l 8.344855,4.15216 c 0.01642,0.008 0.03087,0.0174 0.0439,0.0276 0.01286,0.0101 0.02458,0.0213 0.03428,0.033 0.01942,0.0237 0.03219,0.0504 0.03971,0.0781 0.04506,0.16647 -0.111443,0.3767 -0.30811,0.27718 l -8.154637,-4.12749 c -0.229437,-0.11613 -0.258629,-0.46674 -0.08612,-0.46488 z m 20.932999,1.01128 c 0.172484,-0.002 0.142892,0.34914 -0.08654,0.4653 l -8.474034,4.29011 c -0.19665,0.0996 -0.353169,-0.11025 -0.308108,-0.27675 0.0075,-0.0277 0.02022,-0.054 0.03971,-0.0778 0.0097,-0.0117 0.02175,-0.0229 0.0347,-0.033 0.01302,-0.0102 0.02747,-0.0194 0.0439,-0.0276 l 8.664252,-4.31561 c 0.0329,-0.0162 0.06186,-0.0239 0.08654,-0.0243 z m -21.252813,4.2e-4 c 0.02468,2.8e-4 0.05364,0.008 0.08654,0.0243 l 8.664251,4.31561 c 0.01642,0.008 0.03087,0.0174 0.0439,0.0276 0.01286,0.0101 0.02458,0.0213 0.03428,0.033 0.01942,0.0237 0.03219,0.0504 0.03971,0.0781 0.04506,0.16649 -0.11146,0.37631 -0.30811,0.27675 l -8.474034,-4.2901 c -0.229429,-0.11617 -0.259022,-0.46722 -0.08654,-0.4653 z m -0.323994,1.02592 v 4.1e-4 c 0.02467,2.5e-4 0.05324,0.007 0.08612,0.0239 l 8.988663,4.46486 c 0.0987,0.049 0.133398,0.13809 0.124581,0.22366 v 4.2e-4 c -0.0032,0.0284 -0.01077,0.0565 -0.02258,0.0824 v 4.2e-4 c -0.01189,0.0259 -0.02798,0.0496 -0.04724,0.0698 v 4.2e-4 c -0.01125,0.0118 -0.02587,0.019 -0.0393,0.028 -0.0095,0.006 -0.01749,0.0154 -0.02801,0.0201 h -4.17e-4 c -0.004,0.002 -0.0092,8.1e-4 -0.01338,0.002 -0.03503,0.0127 -0.0733,0.0178 -0.115384,0.006 -0.01577,-0.004 -0.03216,-0.0105 -0.0485,-0.0188 l -8.798446,-4.43936 c -0.229576,-0.11584 -0.258701,-0.46659 -0.08612,-0.46488 z m 21.9008,0 c 0.172583,-0.002 0.143464,0.34903 -0.08612,0.46487 l -8.798448,4.43936 c -0.01634,0.008 -0.0323,0.0147 -0.04808,0.0188 -0.04209,0.0115 -0.08036,0.006 -0.115384,-0.006 -0.0042,-0.002 -0.0093,-4.8e-4 -0.01338,-0.002 h -4.2e-4 c -0.01052,-0.005 -0.01846,-0.0136 -0.02801,-0.0201 -0.01343,-0.009 -0.02805,-0.0162 -0.03929,-0.028 v -4.1e-4 c -0.01925,-0.0202 -0.03534,-0.0439 -0.04724,-0.0698 v -4.2e-4 c -0.01181,-0.0259 -0.01934,-0.054 -0.02258,-0.0824 v -4.2e-4 c -0.0088,-0.0856 0.02588,-0.17463 0.124581,-0.22366 l 8.988664,-4.46486 c 0.03289,-0.0166 0.06144,-0.0235 0.08612,-0.0239 z"
         id="path4518" />
    </g>
    <g
       transform="matrix(0.69433292,0,0,0.69433292,55.676497,47.784874)"
       id="g4528">
      <path
         inkscape:connector-curvature="0"
         id="path4522"
         d="m 116.47106,106.39878 a 24.388053,24.388053 0 0 0 -24.388173,24.38818 24.388053,24.388053 0 0 0 24.388173,24.38817 24.388053,24.388053 0 0 0 24.38766,-24.38817 24.388053,24.388053 0 0 0 -24.38766,-24.38818 z m 0,0.93379 a 23.45409,23.45409 0 0 1 23.45387,23.45439 23.45409,23.45409 0 0 1 -23.45387,23.45386 23.45409,23.45409 0 0 1 -23.454382,-23.45386 23.45409,23.45409 0 0 1 23.454382,-23.45439 z m 0,0.26717 a 23.187244,23.187244 0 0 0 -23.187213,23.18722 23.187244,23.187244 0 0 0 23.187213,23.18721 23.187244,23.187244 0 0 0 23.18722,-23.18721 23.187244,23.187244 0 0 0 -23.18722,-23.18722 z"
         style="opacity:1;fill:#102747;fill-opacity:1;stroke:none;stroke-width:0.25195202;stroke-linecap:round;stroke-linejoin:round;stroke-miterlimit:4;stroke-dasharray:none;stroke-dashoffset:0;stroke-opacity:0" />
      <path
         inkscape:connector-curvature="0"
         style="opacity:0.3;fill:#000000;fill-opacity:1;stroke:none;stroke-width:1.20915639;stroke-linecap:round;stroke-linejoin:round;stroke-miterlimit:4;stroke-dasharray:none;stroke-dashoffset:0;stroke-opacity:0"
         d="m 405.82617,452.73242 -2.59961,7.73828 -3.00586,-3.00586 h -5.40234 l -13.04492,38.82422 15.41797,15.41797 V 517.25 l 9.40429,9.40234 -14.24218,7.94922 v 8.29492 l 25.10937,25.10938 18.25977,18.25781 a 92.175322,92.175322 0 0 0 4.48242,0.22461 92.175322,92.175322 0 0 0 86.54492,-60.78711 l -1.06641,-1.0664 1.82618,-1.01954 a 92.175322,92.175322 0 0 0 4.55859,-23.07812 l -17.25391,-17.25391 -25.8164,-25.81836 h -5.46094 l 0.41211,1.22461 -5.95899,-5.95703 -33.56445,17.13672 v 5.03516 l -5.03516,-5.03516 z"
         transform="scale(0.26458333)"
         id="path4524" />
      <path
         inkscape:connector-curvature="0"
         style="opacity:1;fill:#ffffff;fill-opacity:1;stroke:none;stroke-width:0.31992263;stroke-linecap:round;stroke-linejoin:round;stroke-miterlimit:4;stroke-dasharray:none;stroke-dashoffset:0;stroke-opacity:0"
         d="m 107.37474,119.7853 -3.40413,10.13149 12.28493,5.65771 v -11.25494 z m 19.09364,0 -8.8808,4.53426 v 11.25494 l 12.28494,-5.65771 z m -22.00593,1.25236 -3.45169,10.27207 5.52463,2.54434 -1.44509,0.80681 v 2.19476 l 3.59979,-2.00911 2.40501,1.10759 -1.60445,0.89568 v 1.42673 l -5.68024,3.17011 v 2.19475 l 10.83985,-6.04986 1.60528,0.73924 h 1.33204 l 1.61864,-0.7455 10.83984,6.04986 v -2.19475 l -5.68024,-3.1701 v -1.42674 l -1.60445,-0.89567 2.37289,-1.09258 3.7508,2.09338 v -2.19476 l -1.59652,-0.89108 5.54383,-2.5531 -3.4517,-10.27207 H 127.936 l 3.19054,9.49529 -13.53896,6.2355 h -1.33204 l -13.53896,-6.28013 3.17512,-9.45066 z m 3.77334,0.4518 c 0.0246,2.1e-4 0.0535,0.007 0.0864,0.0237 l 6.72776,3.34157 c 0.26266,0.13044 0.0717,0.54775 -0.18981,0.41508 l -6.53795,-3.31652 c -0.22885,-0.1161 -0.25854,-0.46572 -0.0864,-0.4639 z m 17.37195,0 c 0.17217,-0.002 0.14251,0.3478 -0.0863,0.4639 l -6.53796,3.31652 c -0.26158,0.13267 -0.45246,-0.28464 -0.18981,-0.41508 l 6.72777,-3.34157 c 0.0328,-0.0165 0.0618,-0.0235 0.0863,-0.0237 z m -17.68899,1.0033 c 0.0245,2.1e-4 0.0535,0.008 0.0863,0.0242 l 7.04482,3.51052 c 0.0164,0.008 0.0308,0.0174 0.0438,0.0275 0.0128,0.0101 0.0246,0.0216 0.0342,0.0334 0.0194,0.0237 0.0321,0.0499 0.0396,0.0776 v 4.3e-4 c 0.007,0.0276 0.01,0.0563 0.006,0.0847 v 4.3e-4 c -6.5e-4,0.006 -0.004,0.0115 -0.005,0.0175 -0.009,0.0503 -0.0302,0.0986 -0.0647,0.13474 h -4.3e-4 v 4.3e-4 c -0.0385,0.0404 -0.0909,0.0658 -0.15017,0.0639 -0.0297,-8e-4 -0.0612,-0.009 -0.0939,-0.0254 l -6.53794,-3.31653 c -0.0141,-0.007 -0.0246,-0.0183 -0.0371,-0.0271 l -0.27992,-0.14225 c -0.22874,-0.11631 -0.25842,-0.46592 -0.0864,-0.4639 z m 18.00605,0 c 0.17207,-0.002 0.14238,0.34759 -0.0864,0.4639 l -0.27993,0.14225 c -0.0126,0.009 -0.023,0.0199 -0.0371,0.0271 l -6.53796,3.31653 c -0.0327,0.0166 -0.0642,0.0246 -0.0939,0.0254 -0.0593,0.002 -0.11167,-0.0239 -0.15018,-0.0643 v -4.3e-4 h -4.3e-4 c -0.0345,-0.0361 -0.0557,-0.0845 -0.0647,-0.13474 -8.1e-4,-0.006 -0.004,-0.0119 -0.005,-0.0175 v -4.3e-4 c -0.003,-0.0283 -8.1e-4,-0.0571 0.006,-0.0847 v -4.3e-4 c 0.007,-0.0277 0.0202,-0.0539 0.0396,-0.0776 0.01,-0.0117 0.0217,-0.0228 0.0346,-0.0329 0.013,-0.0102 0.0274,-0.0194 0.0438,-0.0275 l 7.04482,-3.51052 c 0.0328,-0.0161 0.0617,-0.0239 0.0863,-0.0242 z m -18.33062,1.02792 c 0.0246,2.1e-4 0.0531,0.007 0.0859,0.0238 l 0.62242,0.3087 c 0.007,0.003 0.0122,0.002 0.0196,0.006 l 6.72776,3.34156 c 0.0328,0.0163 0.0586,0.0374 0.078,0.0609 0.058,0.0708 0.0593,0.16699 0.0237,0.24488 v 4.2e-4 c -0.0476,0.10382 -0.16087,0.17498 -0.29159,0.10888 l -7.17998,-3.63067 c -0.229,-0.1158 -0.25818,-0.46558 -0.0859,-0.4639 z m 18.65518,0 c 0.17223,-0.002 0.14306,0.34809 -0.0859,0.46389 l -7.17999,3.63067 c -0.13072,0.0661 -0.24397,-0.005 -0.2916,-0.10888 v -4.3e-4 c -0.0356,-0.0779 -0.0343,-0.17408 0.0237,-0.24488 0.0194,-0.0236 0.0451,-0.0446 0.078,-0.0609 l 6.72777,-3.34156 c 0.007,-0.004 0.0123,-0.002 0.0196,-0.006 l 0.62243,-0.30871 c 0.0329,-0.0165 0.0614,-0.0236 0.0859,-0.0237 z m 0.31372,0.99203 c 0.17202,-0.002 0.14237,0.34759 -0.0864,0.4639 l -0.91653,0.46598 c -0.0132,0.009 -0.0245,0.0211 -0.0392,0.0283 l -6.53795,3.31653 c -0.0164,0.008 -0.0327,0.0143 -0.0484,0.0183 -0.0155,0.004 -0.0307,0.007 -0.0454,0.007 -0.0593,0.002 -0.11168,-0.0235 -0.15019,-0.0639 v -4.3e-4 h -4.3e-4 c -0.0581,-0.0607 -0.0853,-0.15439 -0.063,-0.23736 v -4.3e-4 c 0.0112,-0.0416 0.0354,-0.0804 0.0743,-0.11098 0.013,-0.0103 0.0274,-0.0194 0.0438,-0.0275 l 7.68309,-3.83549 c 0.0329,-0.0161 0.0618,-0.0239 0.0864,-0.0242 z m -19.28261,4.3e-4 c 0.0245,2.2e-4 0.0535,0.008 0.0864,0.0242 l 7.68309,3.83549 c 0.0164,0.008 0.0308,0.0173 0.0438,0.0275 0.0389,0.0306 0.0626,0.0694 0.0739,0.11097 v 4.3e-4 c 0.0223,0.083 -0.005,0.17669 -0.063,0.23737 h -4.3e-4 v 4.3e-4 c -0.0385,0.0404 -0.0909,0.0658 -0.15017,0.0639 -0.0148,-6.4e-4 -0.0299,-0.003 -0.0455,-0.007 -0.0157,-0.004 -0.032,-0.0101 -0.0484,-0.0183 l -6.53794,-3.31653 c -0.0148,-0.007 -0.0257,-0.0187 -0.0388,-0.0279 l -0.91654,-0.46599 c -0.22873,-0.11631 -0.25837,-0.466 -0.0863,-0.4639 z m -0.32081,1.0154 c 0.0245,2.1e-4 0.0535,0.008 0.0863,0.0242 l 8.0039,3.99277 c 0.0164,0.008 0.0308,0.0174 0.0438,0.0275 0.0389,0.0306 0.0626,0.0694 0.0739,0.11097 0.007,0.0277 0.01,0.0566 0.006,0.0851 -0.006,0.057 -0.0314,0.11217 -0.0701,0.15268 -0.008,0.008 -0.0188,0.013 -0.0279,0.02 -0.0567,0.0437 -0.13161,0.0617 -0.2161,0.0188 l -6.53795,-3.31653 c -0.006,-0.003 -0.0104,-0.008 -0.0163,-0.0117 l -1.25987,-0.63994 c -0.22881,-0.11618 -0.2584,-0.46594 -0.0863,-0.4639 z m 19.92423,0 c 0.17205,-0.002 0.14245,0.34772 -0.0864,0.4639 l -1.25987,0.63995 c -0.006,0.003 -0.01,0.008 -0.0163,0.0117 l -6.53795,3.31653 c -0.0845,0.0429 -0.15935,0.0249 -0.2161,-0.0187 -0.009,-0.007 -0.0199,-0.0116 -0.0279,-0.02 -0.0387,-0.0405 -0.0644,-0.0957 -0.0701,-0.15268 -0.003,-0.0285 -8e-4,-0.0574 0.006,-0.0851 0.0112,-0.0415 0.0354,-0.0804 0.0743,-0.11097 0.013,-0.0102 0.0275,-0.0194 0.0438,-0.0275 l 8.0039,-3.99277 c 0.0328,-0.0161 0.0618,-0.0239 0.0863,-0.0242 z m 0.32247,1.02166 c 0.17215,-0.002 0.14302,0.34803 -0.0859,0.46389 l -8.13739,4.11877 c -0.19625,0.0993 -0.35243,-0.11047 -0.30746,-0.27659 0.007,-0.0277 0.0202,-0.0539 0.0396,-0.0776 0.01,-0.0117 0.0217,-0.0229 0.0346,-0.0329 0.013,-0.0102 0.0274,-0.0194 0.0438,-0.0275 l 8.32721,-4.14338 c 0.0328,-0.0161 0.0614,-0.0239 0.0859,-0.0242 z m -20.56959,4.3e-4 c 0.0246,2.1e-4 0.0531,0.008 0.0859,0.0242 l 8.32721,4.14338 c 0.0164,0.008 0.0308,0.0174 0.0438,0.0275 0.0128,0.0101 0.0246,0.0212 0.0342,0.0329 0.0194,0.0236 0.0321,0.0503 0.0396,0.078 0.045,0.16612 -0.1112,0.37591 -0.30745,0.27659 l -8.1374,-4.11876 c -0.22895,-0.11588 -0.25808,-0.46575 -0.0859,-0.4639 z m 20.88873,1.00914 c 0.17212,-0.002 0.14259,0.3484 -0.0864,0.46431 l -8.45611,4.28105 c -0.19623,0.0994 -0.35243,-0.11003 -0.30746,-0.27618 0.007,-0.0277 0.0202,-0.0539 0.0396,-0.0776 0.01,-0.0117 0.0217,-0.0228 0.0346,-0.0329 0.013,-0.0102 0.0274,-0.0194 0.0438,-0.0275 l 8.64593,-4.30649 c 0.0329,-0.0161 0.0618,-0.0239 0.0864,-0.0242 z m -21.20787,4.3e-4 c 0.0246,2.1e-4 0.0535,0.008 0.0864,0.0242 l 8.64593,4.30649 c 0.0164,0.008 0.0308,0.0174 0.0438,0.0275 0.0128,0.0101 0.0246,0.0212 0.0342,0.0329 0.0194,0.0237 0.0321,0.0503 0.0396,0.078 0.045,0.16615 -0.11122,0.37552 -0.30745,0.27617 l -8.45612,-4.28104 c -0.22895,-0.11592 -0.25848,-0.46623 -0.0864,-0.46432 z m -0.32331,1.02374 v 4.3e-4 c 0.0246,2.2e-4 0.0531,0.007 0.0859,0.0238 l 8.96965,4.45542 c 0.0985,0.0489 0.13312,0.1378 0.12432,0.22319 v 4.2e-4 c -0.003,0.0283 -0.0107,0.0564 -0.0225,0.0822 v 4.2e-4 c -0.0119,0.0258 -0.0279,0.0495 -0.0471,0.0697 v 4.3e-4 c -0.0112,0.0118 -0.0258,0.019 -0.0392,0.0279 -0.01,0.006 -0.0174,0.0153 -0.0279,0.02 h -4.3e-4 c -0.004,0.002 -0.009,8.1e-4 -0.0133,0.002 -0.035,0.0127 -0.0731,0.0178 -0.11514,0.006 -0.0157,-0.004 -0.0321,-0.0105 -0.0484,-0.0188 l -8.77984,-4.42997 c -0.22909,-0.1156 -0.25816,-0.4656 -0.0859,-0.4639 z m 21.85448,0 c 0.17222,-0.002 0.14317,0.3483 -0.0859,0.4639 l -8.77984,4.42997 c -0.0163,0.008 -0.0322,0.0147 -0.048,0.0187 -0.042,0.0115 -0.0802,0.006 -0.11515,-0.006 -0.004,-0.002 -0.009,-4.2e-4 -0.0133,-0.002 h -4.2e-4 c -0.0105,-0.005 -0.0184,-0.0136 -0.0279,-0.02 -0.0134,-0.009 -0.028,-0.0161 -0.0392,-0.0279 v -4.3e-4 c -0.0192,-0.0202 -0.0353,-0.0438 -0.0471,-0.0697 v -4.2e-4 c -0.0118,-0.0258 -0.0193,-0.0539 -0.0225,-0.0822 v -4.2e-4 c -0.009,-0.0854 0.0258,-0.17427 0.12432,-0.22319 l 8.96966,-4.45542 c 0.0329,-0.0165 0.0614,-0.0235 0.0859,-0.0237 z"
         id="path4526" />
    </g>
    <g
       id="g4536"
       transform="matrix(1.3886659,0,0,1.3886659,13.66807,19.807473)">
      <path
         inkscape:connector-curvature="0"
         id="path4530"
         d="m 60.053051,106.39878 a 24.388053,24.388053 0 0 0 -24.388175,24.38818 24.388053,24.388053 0 0 0 24.388175,24.38817 24.388053,24.388053 0 0 0 24.387656,-24.38817 24.388053,24.388053 0 0 0 -24.387656,-24.38818 z m 0,0.93379 a 23.45409,23.45409 0 0 1 23.453865,23.45439 23.45409,23.45409 0 0 1 -23.453865,23.45386 23.45409,23.45409 0 0 1 -23.454384,-23.45386 23.45409,23.45409 0 0 1 23.454384,-23.45439 z m 0,0.26717 a 23.187244,23.187244 0 0 0 -23.187215,23.18722 23.187244,23.187244 0 0 0 23.187215,23.18721 23.187244,23.187244 0 0 0 23.187215,-23.18721 23.187244,23.187244 0 0 0 -23.187215,-23.18722 z"
         style="opacity:1;fill:#102747;fill-opacity:1;stroke:none;stroke-width:0.25195202;stroke-linecap:round;stroke-linejoin:round;stroke-miterlimit:4;stroke-dasharray:none;stroke-dashoffset:0;stroke-opacity:0" />
      <path
         transform="matrix(0.72926402,0,0,0.72926402,-23.702882,36.565647)"
         inkscape:connector-curvature="0"
         style="opacity:1;fill:#000000;fill-opacity:1;stroke:none;stroke-width:0.38301754;stroke-linecap:round;stroke-linejoin:round;stroke-miterlimit:4;stroke-dasharray:none;stroke-dashoffset:0;stroke-opacity:0;filter:url(#filter4774)"
         d="m 106.09937,117.56496 -4.0755,12.12961 14.70777,6.77352 v -13.47462 z m 22.85927,0 -10.63226,5.42851 v 13.47462 l 14.70776,-6.77352 z m -26.34592,1.49935 -4.13244,12.29792 6.6142,3.04614 -1.73009,0.96593 v 2.6276 l 4.30975,-2.40535 2.87932,1.32604 -1.92088,1.07232 v 1.70811 l -6.80049,3.79531 v 2.6276 l 12.97767,-7.243 1.92188,0.88502 h 1.59474 l 1.93786,-0.89251 12.97767,7.243 v -2.6276 l -6.80049,-3.79531 v -1.70812 l -1.92088,-1.07231 2.84086,-1.30806 4.49054,2.50624 v -2.6276 l -1.91139,-1.06683 6.63718,-3.05662 -4.13244,-12.29792 h -1.72959 l 3.81978,11.36795 -16.2091,7.46525 h -1.59474 l -16.20911,-7.5187 3.8013,-11.3145 z m 4.51752,0.5409 c 0.0295,3.1e-4 0.0641,0.009 0.10338,0.0285 l 8.05461,4.00058 c 0.31445,0.15618 0.0858,0.65578 -0.22725,0.49695 l -7.82736,-3.97061 c -0.27399,-0.13899 -0.30952,-0.55756 -0.10338,-0.55539 z m 20.79804,0 c 0.20612,-0.002 0.17059,0.4164 -0.10339,0.55539 l -7.82736,3.97061 c -0.31317,0.15883 -0.54171,-0.34077 -0.22725,-0.49695 l 8.05461,-4.00058 c 0.0393,-0.0198 0.0739,-0.0282 0.10339,-0.0285 z m -21.17762,1.20117 c 0.0294,3.5e-4 0.0641,0.01 0.10338,0.029 l 8.43419,4.20286 c 0.0196,0.01 0.0369,0.0208 0.0524,0.033 0.0154,0.0121 0.0294,0.0259 0.041,0.04 0.0232,0.0283 0.0385,0.0597 0.0474,0.0929 v 5e-4 c 0.009,0.033 0.0118,0.0675 0.008,0.10138 v 5.1e-4 c -7.5e-4,0.007 -0.005,0.0137 -0.006,0.021 -0.0107,0.0602 -0.0361,0.11808 -0.0774,0.16132 h -5e-4 v 5e-4 c -0.0461,0.0483 -0.10886,0.0787 -0.1798,0.0764 -0.0356,-9.7e-4 -0.0733,-0.0106 -0.11238,-0.0305 l -7.82736,-3.97061 c -0.0169,-0.009 -0.0294,-0.0219 -0.0444,-0.0325 l -0.33513,-0.17031 c -0.27384,-0.13924 -0.30938,-0.5578 -0.10338,-0.55539 z m 21.5572,0 c 0.206,-0.002 0.17046,0.41615 -0.10339,0.55539 l -0.33513,0.17031 c -0.0151,0.0105 -0.0275,0.0238 -0.0445,0.0325 l -7.82736,3.97061 c -0.0391,0.0199 -0.0768,0.0295 -0.11237,0.0305 -0.0709,0.002 -0.1337,-0.0286 -0.17981,-0.0769 v -5e-4 h -5e-4 c -0.0413,-0.0432 -0.0667,-0.10111 -0.0774,-0.16132 -9.7e-4,-0.007 -0.005,-0.0142 -0.006,-0.021 v -4.9e-4 c -0.004,-0.0339 -10e-4,-0.0683 0.007,-0.10139 v -5e-4 c 0.009,-0.0332 0.0242,-0.0646 0.0474,-0.0929 0.0116,-0.014 0.026,-0.0274 0.0414,-0.0395 0.0156,-0.0122 0.0328,-0.0232 0.0524,-0.033 l 8.43419,-4.20286 c 0.0393,-0.0193 0.0739,-0.0286 0.10339,-0.029 z m -21.94577,1.23064 c 0.0295,2.9e-4 0.0636,0.009 0.10288,0.0285 l 0.74518,0.36959 c 0.009,0.004 0.0146,0.002 0.0235,0.007 l 8.05461,4.00058 c 0.0393,0.0195 0.0702,0.0447 0.0934,0.0729 0.0695,0.0848 0.071,0.19993 0.0285,0.29318 v 5e-4 c -0.057,0.12429 -0.19262,0.20949 -0.34912,0.13035 l -8.59601,-4.3467 c -0.27416,-0.13863 -0.30909,-0.5574 -0.10288,-0.55539 z m 22.33434,0 c 0.20619,-0.002 0.17128,0.41676 -0.10289,0.55539 l -8.59601,4.3467 c -0.1565,0.0791 -0.29209,-0.006 -0.34911,-0.13035 v -5e-4 c -0.0426,-0.0932 -0.041,-0.20842 0.0285,-0.29318 0.0232,-0.0282 0.0541,-0.0534 0.0934,-0.0729 l 8.05461,-4.00058 c 0.009,-0.005 0.0148,-0.003 0.0235,-0.007 l 0.74518,-0.36959 c 0.0393,-0.0198 0.0734,-0.0282 0.10289,-0.0285 z m 0.37558,1.18769 c 0.20595,-0.003 0.17046,0.41614 -0.10338,0.55539 l -1.09729,0.55788 c -0.0157,0.0111 -0.0293,0.0253 -0.0469,0.034 l -7.82736,3.97061 c -0.0196,0.01 -0.0392,0.0171 -0.0579,0.022 -0.0186,0.005 -0.0368,0.008 -0.0544,0.009 -0.0709,0.002 -0.1337,-0.0281 -0.17981,-0.0764 v -5e-4 h -4.9e-4 c -0.0696,-0.0726 -0.1021,-0.18485 -0.0754,-0.28418 v -5e-4 c 0.0134,-0.0497 0.0423,-0.0962 0.0889,-0.13286 0.0156,-0.0123 0.0328,-0.0232 0.0524,-0.033 l 9.19835,-4.59193 c 0.0393,-0.0193 0.074,-0.0286 0.10338,-0.029 z m -23.08551,5e-4 c 0.0294,3.6e-4 0.0641,0.01 0.10338,0.029 l 9.19835,4.59193 c 0.0196,0.01 0.0369,0.0207 0.0524,0.033 0.0466,0.0366 0.0749,0.0831 0.0884,0.13286 v 5e-4 c 0.0267,0.0993 -0.006,0.21153 -0.0754,0.28418 h -5e-4 v 5e-4 c -0.0461,0.0483 -0.10886,0.0787 -0.1798,0.0764 -0.0177,-6.5e-4 -0.0359,-0.004 -0.0544,-0.009 -0.0187,-0.005 -0.0384,-0.0121 -0.0579,-0.022 l -7.82736,-3.97061 c -0.0177,-0.009 -0.0307,-0.0224 -0.0465,-0.0335 l -1.09729,-0.55788 c -0.27384,-0.13925 -0.30932,-0.55791 -0.10338,-0.55539 z m -0.38408,1.21566 c 0.0294,3.6e-4 0.0641,0.01 0.10339,0.029 l 9.58242,4.78022 c 0.0196,0.01 0.0369,0.0208 0.0524,0.033 0.0466,0.0366 0.0749,0.0831 0.0884,0.13286 0.009,0.0332 0.0118,0.0677 0.008,0.10189 -0.007,0.0682 -0.0376,0.13429 -0.0839,0.18279 -0.01,0.0101 -0.0225,0.0156 -0.0335,0.024 -0.0679,0.0523 -0.15758,0.0738 -0.25872,0.0225 l -7.82736,-3.97061 c -0.008,-0.004 -0.0124,-0.01 -0.0195,-0.014 l -1.50833,-0.76615 c -0.27393,-0.1391 -0.30937,-0.55784 -0.10339,-0.55539 z m 23.85367,0 c 0.20599,-0.002 0.17055,0.41629 -0.10338,0.55539 l -1.50834,0.76615 c -0.007,0.004 -0.0117,0.0101 -0.0195,0.014 l -7.82736,3.97061 c -0.10114,0.0513 -0.19077,0.0298 -0.25871,-0.0225 -0.0109,-0.008 -0.0238,-0.0139 -0.0335,-0.024 -0.0463,-0.0485 -0.0771,-0.11456 -0.0839,-0.18279 -0.004,-0.0341 -10e-4,-0.0687 0.007,-0.10189 0.0134,-0.0497 0.0423,-0.0962 0.0889,-0.13286 0.0156,-0.0122 0.0328,-0.0232 0.0524,-0.033 l 9.58243,-4.78022 c 0.0393,-0.0193 0.0739,-0.0286 0.10338,-0.029 z m 0.38607,1.22315 c 0.2061,-0.002 0.17123,0.41666 -0.10288,0.55539 l -9.74225,4.93105 c -0.23495,0.11891 -0.42192,-0.13225 -0.36809,-0.33113 0.009,-0.0332 0.0242,-0.0646 0.0474,-0.0929 0.0116,-0.014 0.026,-0.0274 0.0414,-0.0395 0.0156,-0.0122 0.0328,-0.0232 0.0524,-0.033 l 9.9695,-4.96052 c 0.0393,-0.0193 0.0734,-0.0286 0.10288,-0.029 z m -24.62631,5e-4 c 0.0295,3.2e-4 0.0636,0.01 0.10289,0.029 l 9.96949,4.96052 c 0.0196,0.01 0.0369,0.0208 0.0524,0.033 0.0154,0.0121 0.0294,0.0255 0.041,0.0395 0.0232,0.0283 0.0385,0.0602 0.0474,0.0934 0.0538,0.19888 -0.13314,0.45004 -0.3681,0.33113 l -9.74224,-4.93105 c -0.27411,-0.13873 -0.30898,-0.55761 -0.10289,-0.55539 z m 25.00839,1.20817 c 0.20607,-0.002 0.17071,0.4171 -0.10338,0.55588 l -10.12383,5.12534 c -0.23493,0.11895 -0.42192,-0.13172 -0.36809,-0.33063 0.009,-0.0332 0.0242,-0.0646 0.0474,-0.0929 0.0116,-0.014 0.026,-0.0274 0.0414,-0.0394 0.0156,-0.0122 0.0328,-0.0232 0.0524,-0.033 l 10.35108,-5.15581 c 0.0393,-0.0193 0.0739,-0.0286 0.10338,-0.029 z m -25.39047,4.9e-4 c 0.0295,3.3e-4 0.0641,0.01 0.10339,0.029 l 10.35107,5.15581 c 0.0196,0.01 0.0369,0.0208 0.0524,0.033 0.0154,0.0121 0.0294,0.0254 0.041,0.0394 0.0232,0.0283 0.0385,0.0603 0.0474,0.0934 0.0538,0.19891 -0.13316,0.44958 -0.3681,0.33063 l -10.12382,-5.12534 c -0.2741,-0.13878 -0.30945,-0.55818 -0.10339,-0.55589 z m -0.38707,1.22565 v 5e-4 c 0.0295,3e-4 0.0636,0.009 0.10289,0.0285 l 10.73864,5.33411 c 0.11791,0.0586 0.15937,0.16498 0.14884,0.26721 v 5e-4 c -0.004,0.0339 -0.0129,0.0675 -0.027,0.0984 v 5e-4 c -0.0142,0.0309 -0.0334,0.0592 -0.0564,0.0834 v 5e-4 c -0.0134,0.0141 -0.0309,0.0227 -0.047,0.0335 -0.0114,0.008 -0.0209,0.0184 -0.0335,0.024 h -5e-4 c -0.005,0.002 -0.011,10e-4 -0.016,0.003 -0.0418,0.0152 -0.0876,0.0212 -0.13785,0.007 -0.0189,-0.005 -0.0384,-0.0125 -0.0579,-0.0225 l -10.51139,-5.30364 c -0.27428,-0.1384 -0.30907,-0.55744 -0.10289,-0.55539 z m 26.16461,0 c 0.20619,-0.002 0.1714,0.41699 -0.10288,0.55539 l -10.5114,5.30364 c -0.0195,0.01 -0.0386,0.0177 -0.0574,0.0225 -0.0503,0.0137 -0.096,0.007 -0.13785,-0.008 -0.005,-0.002 -0.0112,-5.7e-4 -0.016,-0.002 h -5e-4 c -0.0126,-0.006 -0.0221,-0.0162 -0.0335,-0.024 -0.016,-0.0107 -0.0335,-0.0194 -0.0469,-0.0335 v -5e-4 c -0.023,-0.0242 -0.0422,-0.0525 -0.0564,-0.0834 v -5e-4 c -0.0141,-0.0309 -0.0231,-0.0645 -0.027,-0.0984 v -5e-4 c -0.0105,-0.10223 0.0309,-0.20864 0.14883,-0.26721 l 10.73865,-5.33411 c 0.0393,-0.0198 0.0734,-0.0282 0.10288,-0.0285 z"
         id="path4532" />
      <path
         id="path4534"
         d="m 50.683464,119.10383 -3.411353,10.15296 12.310972,5.6697 V 123.6477 Z m 19.134094,0 -8.899616,4.54387 v 11.27879 l 12.310969,-5.6697 z m -22.052555,1.25502 -3.459012,10.29384 5.53634,2.54973 -1.448152,0.80852 v 2.19941 l 3.607424,-2.01337 2.410102,1.10994 -1.607851,0.89758 v 1.42975 l -5.692276,3.17682 v 2.19941 l 10.862817,-6.06268 1.608688,0.7408 h 1.334859 l 1.622063,-0.74707 10.862818,6.06268 v -2.19941 l -5.692277,-3.17682 v -1.42976 l -1.607851,-0.89757 2.377915,-1.09489 3.758757,2.09781 v -2.1994 l -1.599908,-0.89297 5.555573,-2.55851 -3.459011,-10.29384 h -1.447736 l 3.197307,9.51541 -13.56765,6.24871 h -1.334859 l -13.567652,-6.29344 3.181837,-9.47068 z m 3.781332,0.45276 c 0.02468,2.5e-4 0.05364,0.007 0.08654,0.0238 l 6.74202,3.34864 c 0.263206,0.13073 0.07184,0.54892 -0.190217,0.41597 l -6.551803,-3.32356 c -0.229342,-0.11634 -0.259081,-0.4667 -0.08654,-0.46487 z m 17.408769,0 c 0.172534,-0.002 0.142796,0.34853 -0.08654,0.46487 l -6.551804,3.32356 c -0.262138,0.13295 -0.45343,-0.28524 -0.190217,-0.41597 l 6.742021,-3.34864 c 0.0329,-0.0166 0.06186,-0.0235 0.08654,-0.0238 z m -17.726491,1.00542 c 0.02459,2.9e-4 0.05363,0.008 0.08654,0.0243 l 7.059746,3.51796 c 0.01642,0.008 0.03087,0.0174 0.0439,0.0276 0.01286,0.0101 0.02458,0.0217 0.03428,0.0335 0.01942,0.0237 0.03219,0.05 0.03971,0.0778 v 4.2e-4 c 0.0073,0.0277 0.0098,0.0565 0.0067,0.0849 v 4.2e-4 c -6.23e-4,0.006 -0.0042,0.0115 -0.005,0.0175 -0.009,0.0504 -0.03026,0.0989 -0.0648,0.13504 h -4.2e-4 v 4.1e-4 c -0.03859,0.0405 -0.09112,0.0659 -0.1505,0.064 -0.02977,-8.1e-4 -0.06132,-0.009 -0.09406,-0.0255 l -6.551803,-3.32356 c -0.01416,-0.007 -0.02459,-0.0184 -0.03721,-0.0272 L 51.31517,122.282 c -0.229219,-0.11656 -0.258964,-0.46691 -0.08654,-0.46488 z m 18.044216,0 c 0.172428,-0.002 0.142681,0.34833 -0.08654,0.46489 l -0.280517,0.14255 c -0.01262,0.009 -0.02305,0.0199 -0.03721,0.0272 l -6.551804,3.32356 c -0.03274,0.0167 -0.06429,0.0247 -0.09406,0.0255 -0.05938,0.002 -0.111911,-0.0239 -0.150502,-0.0644 v -4.2e-4 h -4.17e-4 c -0.03454,-0.0362 -0.05582,-0.0846 -0.0648,-0.13503 -8.09e-4,-0.006 -0.0044,-0.0119 -0.005,-0.0175 v -4.2e-4 c -0.0032,-0.0284 -9.71e-4,-0.0572 0.0063,-0.0849 v -4.2e-4 c 0.0075,-0.0277 0.02022,-0.054 0.03971,-0.0777 0.0097,-0.0117 0.02175,-0.0229 0.0347,-0.033 0.01302,-0.0102 0.02747,-0.0194 0.0439,-0.0276 l 7.059744,-3.51796 c 0.0329,-0.0162 0.06186,-0.0239 0.08654,-0.0243 z m -18.369465,1.0301 c 0.02467,2.4e-4 0.05322,0.007 0.08612,0.0239 l 0.623742,0.30936 c 0.0073,0.003 0.01221,0.002 0.01965,0.006 l 6.74202,3.34864 c 0.03293,0.0164 0.05876,0.0375 0.07817,0.0611 0.05817,0.0709 0.05943,0.16735 0.02383,0.2454 v 4.2e-4 c -0.04773,0.10403 -0.161224,0.17535 -0.292224,0.10911 l -7.195194,-3.63836 c -0.229487,-0.11604 -0.258719,-0.46656 -0.08612,-0.46488 z m 18.694714,0 c 0.172589,-0.002 0.143366,0.34883 -0.08612,0.46487 l -7.195196,3.63836 c -0.131001,0.0663 -0.244492,-0.005 -0.292222,-0.10911 v -4.2e-4 c -0.03568,-0.0781 -0.03434,-0.17445 0.02383,-0.2454 0.01942,-0.0236 0.04525,-0.0447 0.07817,-0.0611 l 6.742021,-3.34864 c 0.0074,-0.004 0.01237,-0.002 0.01965,-0.006 l 0.623744,-0.30936 c 0.03289,-0.0166 0.06144,-0.0236 0.08612,-0.0239 z m 0.314379,0.99413 c 0.172388,-0.002 0.142681,0.34833 -0.08654,0.46489 l -0.918473,0.46697 c -0.01319,0.009 -0.0245,0.0211 -0.0393,0.0284 l -6.551803,3.32356 c -0.01642,0.008 -0.03281,0.0143 -0.04849,0.0184 -0.01553,0.004 -0.03077,0.007 -0.04557,0.007 -0.05937,0.002 -0.111914,-0.0235 -0.150502,-0.064 v -4.1e-4 h -4.17e-4 c -0.05825,-0.0608 -0.08546,-0.15473 -0.06313,-0.23788 v -4.2e-4 c 0.01125,-0.0417 0.03542,-0.0806 0.07441,-0.1112 0.01302,-0.0103 0.02747,-0.0194 0.0439,-0.0276 l 7.699372,-3.84363 c 0.0329,-0.0162 0.06195,-0.0239 0.08654,-0.0243 z m -19.323472,4.2e-4 c 0.02459,3e-4 0.05363,0.008 0.08654,0.0243 l 7.699374,3.84363 c 0.01642,0.008 0.03087,0.0173 0.0439,0.0276 0.03899,0.0307 0.06267,0.0696 0.074,0.11121 v 4.2e-4 c 0.02233,0.0832 -0.0049,0.17706 -0.06312,0.23787 h -4.2e-4 v 4.2e-4 c -0.03859,0.0405 -0.09112,0.0659 -0.1505,0.064 -0.01481,-5.4e-4 -0.03004,-0.003 -0.04557,-0.007 -0.01569,-0.004 -0.03216,-0.0101 -0.0485,-0.0184 l -6.551802,-3.32356 c -0.0148,-0.007 -0.02569,-0.0187 -0.03888,-0.028 l -0.918475,-0.46698 c -0.229219,-0.11656 -0.258918,-0.46699 -0.08654,-0.46488 z m -0.321489,1.01756 c 0.02459,3e-4 0.05363,0.008 0.08654,0.0243 l 8.02086,4.00123 c 0.01642,0.008 0.03087,0.0174 0.0439,0.0276 0.03899,0.0307 0.06267,0.0696 0.074,0.1112 0.0073,0.0277 0.0098,0.0567 0.0067,0.0853 -0.0057,0.0571 -0.03149,0.1124 -0.07024,0.153 -0.0081,0.008 -0.01887,0.013 -0.02801,0.0201 -0.05687,0.0438 -0.131893,0.0617 -0.216554,0.0188 l -6.551803,-3.32356 c -0.0065,-0.003 -0.01039,-0.008 -0.0163,-0.0117 l -1.262536,-0.6413 c -0.229291,-0.11643 -0.25895,-0.46692 -0.08654,-0.46488 z m 19.966447,0 c 0.172421,-0.002 0.142756,0.34845 -0.08654,0.46488 l -1.262536,0.6413 c -0.0059,0.003 -0.0098,0.008 -0.0163,0.0117 l -6.551804,3.32356 c -0.08466,0.043 -0.159683,0.025 -0.216554,-0.0188 -0.0091,-0.007 -0.01992,-0.0117 -0.02801,-0.0201 -0.03875,-0.0406 -0.06457,-0.0959 -0.07024,-0.15301 -0.0032,-0.0285 -9.71e-4,-0.0575 0.0063,-0.0853 0.01125,-0.0417 0.03542,-0.0806 0.07441,-0.1112 0.01302,-0.0102 0.02747,-0.0194 0.0439,-0.0276 l 8.020861,-4.00123 c 0.0329,-0.0162 0.06186,-0.0239 0.08654,-0.0243 z m 0.32316,1.02382 c 0.17251,-0.002 0.143325,0.34876 -0.08612,0.46488 l -8.154637,4.12749 c -0.196665,0.0995 -0.353169,-0.1107 -0.308108,-0.27718 0.0075,-0.0277 0.02022,-0.054 0.03971,-0.0777 0.0097,-0.0117 0.02175,-0.0229 0.0347,-0.033 0.01302,-0.0102 0.02747,-0.0194 0.0439,-0.0276 l 8.344854,-4.15216 c 0.03289,-0.0162 0.06144,-0.0239 0.08612,-0.0243 z m -20.613184,4.2e-4 c 0.02467,2.7e-4 0.05323,0.008 0.08612,0.0243 l 8.344855,4.15216 c 0.01642,0.008 0.03087,0.0174 0.0439,0.0276 0.01286,0.0101 0.02458,0.0213 0.03428,0.033 0.01942,0.0237 0.03219,0.0504 0.03971,0.0781 0.04506,0.16647 -0.111443,0.3767 -0.30811,0.27718 l -8.154637,-4.12749 c -0.229437,-0.11613 -0.258629,-0.46674 -0.08612,-0.46488 z m 20.932999,1.01128 c 0.172484,-0.002 0.142892,0.34914 -0.08654,0.4653 l -8.474034,4.29011 c -0.19665,0.0996 -0.353169,-0.11025 -0.308108,-0.27675 0.0075,-0.0277 0.02022,-0.054 0.03971,-0.0778 0.0097,-0.0117 0.02175,-0.0229 0.0347,-0.033 0.01302,-0.0102 0.02747,-0.0194 0.0439,-0.0276 l 8.664252,-4.31561 c 0.0329,-0.0162 0.06186,-0.0239 0.08654,-0.0243 z m -21.252813,4.2e-4 c 0.02468,2.8e-4 0.05364,0.008 0.08654,0.0243 l 8.664251,4.31561 c 0.01642,0.008 0.03087,0.0174 0.0439,0.0276 0.01286,0.0101 0.02458,0.0213 0.03428,0.033 0.01942,0.0237 0.03219,0.0504 0.03971,0.0781 0.04506,0.16649 -0.11146,0.37631 -0.30811,0.27675 l -8.474034,-4.2901 c -0.229429,-0.11617 -0.259022,-0.46722 -0.08654,-0.4653 z m -0.323994,1.02592 v 4.1e-4 c 0.02467,2.5e-4 0.05324,0.007 0.08612,0.0239 l 8.988663,4.46486 c 0.0987,0.049 0.133398,0.13809 0.124581,0.22366 v 4.2e-4 c -0.0032,0.0284 -0.01077,0.0565 -0.02258,0.0824 v 4.2e-4 c -0.01189,0.0259 -0.02798,0.0496 -0.04724,0.0698 v 4.2e-4 c -0.01125,0.0118 -0.02587,0.019 -0.0393,0.028 -0.0095,0.006 -0.01749,0.0154 -0.02801,0.0201 h -4.17e-4 c -0.004,0.002 -0.0092,8.1e-4 -0.01338,0.002 -0.03503,0.0127 -0.0733,0.0178 -0.115384,0.006 -0.01577,-0.004 -0.03216,-0.0105 -0.0485,-0.0188 l -8.798446,-4.43936 c -0.229576,-0.11584 -0.258701,-0.46659 -0.08612,-0.46488 z m 21.9008,0 c 0.172583,-0.002 0.143464,0.34903 -0.08612,0.46487 l -8.798448,4.43936 c -0.01634,0.008 -0.0323,0.0147 -0.04808,0.0188 -0.04209,0.0115 -0.08036,0.006 -0.115384,-0.006 -0.0042,-0.002 -0.0093,-4.8e-4 -0.01338,-0.002 h -4.2e-4 c -0.01052,-0.005 -0.01846,-0.0136 -0.02801,-0.0201 -0.01343,-0.009 -0.02805,-0.0162 -0.03929,-0.028 v -4.1e-4 c -0.01925,-0.0202 -0.03534,-0.0439 -0.04724,-0.0698 v -4.2e-4 c -0.01181,-0.0259 -0.01934,-0.054 -0.02258,-0.0824 v -4.2e-4 c -0.0088,-0.0856 0.02588,-0.17463 0.124581,-0.22366 l 8.988664,-4.46486 c 0.03289,-0.0166 0.06144,-0.0235 0.08612,-0.0239 z"
         style="opacity:1;fill:#ffffff;fill-opacity:1;stroke:none;stroke-width:0.32060057;stroke-linecap:round;stroke-linejoin:round;stroke-miterlimit:4;stroke-dasharray:none;stroke-dashoffset:0;stroke-opacity:0"
         inkscape:connector-curvature="0" />
    </g>
    <path
       inkscape:connector-curvature="0"
       id="path4538"
       d="m 177.12708,167.55982 a 33.866855,33.866855 0 0 0 -33.86702,33.86703 33.866855,33.866855 0 0 0 33.86702,33.86702 33.866855,33.866855 0 0 0 33.86631,-33.86702 33.866855,33.866855 0 0 0 -33.86631,-33.86703 z m 0,1.29672 a 32.569893,32.569893 0 0 1 32.56959,32.57031 32.569893,32.569893 0 0 1 -32.56959,32.56958 32.569893,32.569893 0 0 1 -32.5703,-32.56958 32.569893,32.569893 0 0 1 32.5703,-32.57031 z m 0,0.37101 a 32.199333,32.199333 0 0 0 -32.19929,32.1993 32.199333,32.199333 0 0 0 32.19929,32.19929 32.199333,32.199333 0 0 0 32.1993,-32.19929 32.199333,32.199333 0 0 0 -32.1993,-32.1993 z"
       style="opacity:1;fill:#0a3777;fill-opacity:1;stroke:none;stroke-width:0.25195202;stroke-linecap:round;stroke-linejoin:round;stroke-miterlimit:4;stroke-dasharray:none;stroke-dashoffset:0;stroke-opacity:0"
       inkscape:export-filename="/home/fpermana/repositories/quran/sailquran/icons/86x86/sailquran.png"
       inkscape:export-xdpi="32.25"
       inkscape:export-ydpi="32.25" />
    <path
       inkscape:connector-curvature="0"
       style="opacity:0.3;fill:#000000;fill-opacity:1;stroke:none;stroke-width:1.20915639;stroke-linecap:round;stroke-linejoin:round;stroke-miterlimit:4;stroke-dasharray:none;stroke-dashoffset:0;stroke-opacity:0"
       d="m 164.49547,186.14943 -0.95515,2.84319 -1.1044,-1.10441 -1.98492,0 -4.79293,14.26471 5.66483,5.66484 0,2.03658 3.45531,3.45459 -5.23283,2.92068 0,3.04771 9.22563,9.22563 6.70896,6.70824 a 33.866856,33.866856 0 0 0 1.64692,0.0825 33.866856,33.866856 0 0 0 31.79815,-22.33427 l -0.39182,-0.39181 0.67097,-0.3746 a 33.866856,33.866856 0 0 0 1.67491,-8.47931 l -6.3394,-6.3394 -9.4854,-9.48612 -2.00645,0 0.15142,0.44994 -2.18944,-2.18872 -12.33218,6.29634 0,1.85001 -1.85001,-1.85001 z"
       id="path4540" />
    <path
       inkscape:connector-curvature="0"
       style="opacity:1;fill:#ffffff;fill-opacity:1;stroke:none;stroke-width:0.31992263;stroke-linecap:round;stroke-linejoin:round;stroke-miterlimit:4;stroke-dasharray:none;stroke-dashoffset:0;stroke-opacity:0"
       d="m 164.49533,186.14922 -4.7272,14.06926 17.05966,7.85667 0,-15.62935 z m 26.51469,0 -12.33247,6.29658 0,15.62935 17.05968,-7.85667 z m -30.55889,1.73911 -4.79324,14.26448 7.67186,3.53323 -2.00674,1.12039 0,3.04779 4.9989,-2.78998 3.33976,1.53807 -2.22805,1.2438 0,1.98125 -7.88795,4.40223 0,3.04777 15.05293,-8.40123 2.22919,1.02655 1.84976,0 2.24775,-1.03525 15.05292,8.40124 0,-3.04778 -7.88796,-4.40221 0,-1.98126 -2.22804,-1.24379 3.29515,-1.51723 5.20861,2.90701 0,-3.04779 -2.21704,-1.23741 7.69853,-3.5454 -4.79326,-14.26448 -2.00616,0 4.43059,13.18579 -18.80109,8.65902 -1.84976,0 -18.80109,-8.721 4.40918,-13.12381 z m 5.23991,0.6274 c 0.0342,2.9e-4 0.0743,0.01 0.11998,0.0329 l 9.34261,4.64033 c 0.36475,0.18114 0.0996,0.76064 -0.26358,0.57641 l -9.07903,-4.60554 c -0.31779,-0.16123 -0.35902,-0.64673 -0.11998,-0.6442 z m 24.12383,0 c 0.23909,-0.003 0.1979,0.48298 -0.11984,0.64421 l -9.07904,4.60553 c -0.36325,0.18424 -0.62832,-0.39527 -0.26358,-0.5764 l 9.34262,-4.64033 c 0.0455,-0.0229 0.0858,-0.0326 0.11984,-0.0329 z m -24.56409,1.39325 c 0.034,2.9e-4 0.0743,0.0111 0.11984,0.0336 l 9.7829,4.87494 c 0.0228,0.0111 0.0428,0.0242 0.0608,0.0382 0.0178,0.014 0.0342,0.03 0.0475,0.0464 0.0269,0.0329 0.0446,0.0693 0.055,0.10776 l 0,5.9e-4 c 0.01,0.0383 0.0139,0.0782 0.008,0.11762 l 0,6e-4 c -9e-4,0.008 -0.006,0.016 -0.007,0.0243 -0.0125,0.0699 -0.0419,0.13692 -0.0898,0.18711 l -6e-4,0 0,6e-4 c -0.0535,0.0561 -0.12623,0.0914 -0.20853,0.0887 -0.0412,-0.001 -0.085,-0.0125 -0.1304,-0.0353 l -9.07901,-4.60555 c -0.0196,-0.01 -0.0342,-0.0254 -0.0515,-0.0376 l -0.38872,-0.19754 c -0.31764,-0.16152 -0.35886,-0.64701 -0.11998,-0.6442 z m 25.00438,0 c 0.23895,-0.003 0.19772,0.48269 -0.11998,0.6442 l -0.38873,0.19754 c -0.0175,0.0125 -0.0319,0.0276 -0.0515,0.0376 l -9.07904,4.60556 c -0.0454,0.023 -0.0892,0.0342 -0.13039,0.0353 -0.0823,0.003 -0.15507,-0.0332 -0.20855,-0.0893 l 0,-6e-4 -6e-4,0 c -0.0479,-0.0501 -0.0773,-0.11734 -0.0899,-0.18711 -0.001,-0.008 -0.006,-0.0165 -0.007,-0.0243 l 0,-6e-4 c -0.004,-0.0393 -0.001,-0.0793 0.008,-0.11762 l 0,-5.9e-4 c 0.01,-0.0385 0.028,-0.0748 0.055,-0.10777 0.0139,-0.0162 0.0301,-0.0317 0.048,-0.0457 0.018,-0.0142 0.038,-0.0269 0.0608,-0.0382 l 9.7829,-4.87494 c 0.0455,-0.0224 0.0857,-0.0332 0.11984,-0.0336 z m -25.4551,1.42744 c 0.0342,2.9e-4 0.0737,0.01 0.11929,0.0331 l 0.86433,0.42868 c 0.01,0.004 0.0169,0.003 0.0272,0.008 l 9.34261,4.64031 c 0.0455,0.0226 0.0814,0.0519 0.10831,0.0846 0.0805,0.0983 0.0823,0.2319 0.0329,0.34006 l 0,5.8e-4 c -0.0661,0.14417 -0.22339,0.24299 -0.40492,0.1512 l -9.97059,-5.04179 c -0.318,-0.1608 -0.35853,-0.64653 -0.11929,-0.6442 z m 25.90581,0 c 0.23917,-0.003 0.19866,0.48338 -0.11929,0.64419 l -9.9706,5.04178 c -0.18153,0.0918 -0.3388,-0.007 -0.40494,-0.15119 l 0,-6e-4 c -0.0494,-0.10818 -0.0476,-0.24174 0.0329,-0.34006 0.0269,-0.0328 0.0626,-0.0619 0.10832,-0.0846 l 9.34262,-4.64031 c 0.01,-0.006 0.0171,-0.003 0.0272,-0.008 l 0.86435,-0.42869 c 0.0457,-0.0229 0.0853,-0.0328 0.11928,-0.0329 z m 0.43565,1.3776 c 0.23888,-0.003 0.19771,0.48268 -0.11998,0.6442 l -1.27275,0.64709 c -0.0183,0.0125 -0.034,0.0293 -0.0544,0.0393 l -9.07903,4.60555 c -0.0228,0.0111 -0.0454,0.0199 -0.0672,0.0254 -0.0215,0.006 -0.0426,0.01 -0.063,0.01 -0.0824,0.003 -0.15509,-0.0326 -0.20857,-0.0887 l 0,-6e-4 -5.9e-4,0 c -0.0807,-0.0843 -0.11846,-0.2144 -0.0875,-0.32961 l 0,-6e-4 c 0.0155,-0.0578 0.0492,-0.11165 0.10318,-0.15411 0.0181,-0.0143 0.038,-0.0269 0.0608,-0.0382 l 10.66925,-5.32622 c 0.0457,-0.0223 0.0858,-0.0332 0.11998,-0.0336 z m -26.7771,5.9e-4 c 0.034,3.1e-4 0.0743,0.0111 0.11998,0.0336 l 10.66925,5.32621 c 0.0228,0.0111 0.0428,0.024 0.0608,0.0382 0.054,0.0425 0.0869,0.0964 0.10262,0.1541 l 0,6e-4 c 0.031,0.11526 -0.007,0.24536 -0.0875,0.32963 l -6e-4,0 0,5.9e-4 c -0.0535,0.0561 -0.12623,0.0914 -0.20854,0.0887 -0.0205,-8.9e-4 -0.0415,-0.004 -0.0632,-0.01 -0.0218,-0.006 -0.0444,-0.014 -0.0672,-0.0254 l -9.07902,-4.60556 c -0.0205,-0.01 -0.0357,-0.026 -0.0539,-0.0387 l -1.27276,-0.6471 c -0.31763,-0.16152 -0.35879,-0.64712 -0.11985,-0.64421 z m -0.4455,1.41006 c 0.034,2.9e-4 0.0743,0.0111 0.11984,0.0336 l 11.11475,5.54462 c 0.0228,0.0111 0.0428,0.0242 0.0608,0.0382 0.054,0.0425 0.0869,0.0964 0.10262,0.1541 0.01,0.0385 0.0139,0.0786 0.008,0.11818 -0.008,0.0791 -0.0436,0.15576 -0.0973,0.21202 -0.0111,0.0111 -0.0261,0.018 -0.0387,0.0278 -0.0787,0.0607 -0.18277,0.0857 -0.3001,0.0261 l -9.07902,-4.60555 c -0.008,-0.004 -0.0144,-0.0111 -0.0226,-0.0163 l -1.74954,-0.88866 c -0.31774,-0.16134 -0.35883,-0.64704 -0.11984,-0.6442 z m 27.6681,0 c 0.23892,-0.003 0.19782,0.48286 -0.11998,0.6442 l -1.74954,0.88867 c -0.008,0.004 -0.0139,0.0111 -0.0226,0.0162 l -9.07903,4.60555 c -0.11734,0.0596 -0.22129,0.0346 -0.30009,-0.026 -0.0125,-0.01 -0.0276,-0.0161 -0.0388,-0.0278 -0.0537,-0.0562 -0.0894,-0.13289 -0.0973,-0.21202 -0.004,-0.0396 -0.001,-0.0797 0.008,-0.11817 0.0155,-0.0576 0.0492,-0.11165 0.10318,-0.15411 0.0181,-0.0142 0.0382,-0.0269 0.0608,-0.0382 l 11.11474,-5.54463 c 0.0455,-0.0223 0.0858,-0.0332 0.11985,-0.0336 z m 0.4478,1.41874 c 0.23906,-0.003 0.19861,0.4833 -0.11928,0.64419 l -11.30012,5.71959 c -0.27252,0.1379 -0.48941,-0.1534 -0.42696,-0.38409 0.01,-0.0385 0.0281,-0.0748 0.055,-0.10776 0.0139,-0.0162 0.0301,-0.0318 0.0481,-0.0457 0.018,-0.0142 0.038,-0.0269 0.0608,-0.0382 l 11.56372,-5.75377 c 0.0455,-0.0224 0.0853,-0.0332 0.11928,-0.0336 z m -28.56428,6e-4 c 0.0342,2.9e-4 0.0737,0.0111 0.11928,0.0336 l 11.56371,5.75377 c 0.0228,0.0111 0.0428,0.0242 0.0608,0.0382 0.0178,0.014 0.0342,0.0294 0.0475,0.0457 0.0269,0.0328 0.0446,0.0699 0.055,0.10831 0.0625,0.23069 -0.15442,0.52202 -0.42694,0.3841 l -11.30013,-5.71959 c -0.31794,-0.16091 -0.35839,-0.64677 -0.11929,-0.6442 z m 29.00746,1.40136 c 0.23902,-0.003 0.19801,0.48381 -0.11998,0.64477 l -11.74271,5.94494 c -0.2725,0.13804 -0.48941,-0.15279 -0.42696,-0.38352 0.01,-0.0385 0.028,-0.0748 0.055,-0.10776 0.0139,-0.0163 0.0301,-0.0317 0.0481,-0.0457 0.018,-0.0142 0.038,-0.0269 0.0608,-0.0382 l 12.00631,-5.98028 c 0.0457,-0.0224 0.0858,-0.0332 0.11998,-0.0336 z m -29.45064,5.9e-4 c 0.0342,2.9e-4 0.0743,0.0111 0.11998,0.0336 l 12.00631,5.98027 c 0.0228,0.0111 0.0428,0.0242 0.0608,0.0382 0.0178,0.014 0.0342,0.0294 0.0475,0.0457 0.0269,0.0329 0.0446,0.0699 0.055,0.10831 0.0625,0.23073 -0.15444,0.52148 -0.42694,0.38351 l -11.74273,-5.94493 c -0.31793,-0.16098 -0.35894,-0.64744 -0.11998,-0.64479 z m -0.44897,1.42163 0,6e-4 c 0.0342,3.1e-4 0.0737,0.01 0.11928,0.0331 l 12.45585,6.18709 c 0.13678,0.0679 0.18486,0.19136 0.17264,0.30994 l 0,5.8e-4 c -0.004,0.0393 -0.0149,0.0783 -0.0312,0.11415 l 0,5.8e-4 c -0.0165,0.0358 -0.0387,0.0687 -0.0654,0.0968 l 0,6e-4 c -0.0156,0.0164 -0.0358,0.0264 -0.0544,0.0387 -0.0139,0.008 -0.0242,0.0213 -0.0387,0.0278 l -6e-4,0 c -0.006,0.003 -0.0125,0.001 -0.0185,0.003 -0.0486,0.0176 -0.10151,0.0247 -0.15989,0.008 -0.0218,-0.006 -0.0446,-0.0146 -0.0672,-0.0261 l -12.19226,-6.15175 c -0.31813,-0.16053 -0.3585,-0.64656 -0.11929,-0.6442 z m 30.34857,0 c 0.23915,-0.003 0.19881,0.48368 -0.11929,0.64421 l -12.19226,6.15174 c -0.0226,0.0111 -0.0447,0.0204 -0.0667,0.026 -0.0583,0.016 -0.11137,0.008 -0.1599,-0.008 -0.006,-0.003 -0.0125,-5.8e-4 -0.0185,-0.003 l -5.9e-4,0 c -0.0146,-0.007 -0.0255,-0.0189 -0.0387,-0.0278 -0.0186,-0.0125 -0.0389,-0.0224 -0.0544,-0.0387 l 0,-6e-4 c -0.0267,-0.0281 -0.049,-0.0608 -0.0654,-0.0968 l 0,-5.8e-4 c -0.0164,-0.0358 -0.0268,-0.0749 -0.0312,-0.11415 l 0,-5.9e-4 c -0.0125,-0.11859 0.0358,-0.242 0.17264,-0.30993 l 12.45586,-6.18709 c 0.0457,-0.0229 0.0853,-0.0326 0.11929,-0.0329 z"
       id="path4542" />
    <path
       inkscape:connector-curvature="0"
       style="fill:url(#linearGradient4556);fill-opacity:1;stroke:none;stroke-width:1.36250222;stroke-miterlimit:4;stroke-dasharray:none;stroke-opacity:1"
       d="m -8.2010046,164.56781 v 33.86615 c 0,18.76201 15.104843,33.86685 33.8668546,33.86685 h 33.86614 v -33.86685 c 0,-18.76201 -15.10413,-33.86615 -33.86614,-33.86615 z"
       id="rect4500" />
    <path
       inkscape:connector-curvature="0"
       style="fill:#000080;fill-opacity:1;stroke:none;stroke-width:1;stroke-miterlimit:4;stroke-dasharray:none;stroke-opacity:1"
       d="m -85.460035,173.03239 c -13.770259,0 -24.855845,11.08559 -24.855845,24.85585 v 24.85637 h 24.855845 24.856366 v -24.85637 -24.85585 z"
       id="path4529" />
    <path
       inkscape:connector-curvature="0"
       style="fill:#000080;fill-opacity:1;stroke:none;stroke-width:1;stroke-miterlimit:4;stroke-dasharray:none;stroke-opacity:1"
       d="m -61.705523,233.373 c -13.77026,0 -24.856363,11.08559 -24.856363,24.85585 v 24.85637 h 24.856363 24.855848 v -24.85637 c 0,-13.77026 -11.085587,-24.85585 -24.855848,-24.85585 z"
       id="path4535" />
  </g>
</svg>
