<?xml version="1.0" encoding="UTF-8" standalone="no"?>
<!-- Created with Inkscape (http://www.inkscape.org/) -->

<svg
   xmlns:dc="http://purl.org/dc/elements/1.1/"
   xmlns:cc="http://creativecommons.org/ns#"
   xmlns:rdf="http://www.w3.org/1999/02/22-rdf-syntax-ns#"
   xmlns:svg="http://www.w3.org/2000/svg"
   xmlns="http://www.w3.org/2000/svg"
   xmlns:xlink="http://www.w3.org/1999/xlink"
   xmlns:sodipodi="http://sodipodi.sourceforge.net/DTD/sodipodi-0.dtd"
   xmlns:inkscape="http://www.inkscape.org/namespaces/inkscape"
   width="67.73304mm"
   height="67.733337mm"
   viewBox="0 0 67.73304 67.733337"
   version="1.1"
   id="svg4600"
   inkscape:version="0.92.2 (5c3e80d, 2017-08-06)"
   sodipodi:docname="quran.svg"
   inkscape:export-filename="C:\Users\fpermana\Qt\quran\sailquran\icons\256x256\sailquran.png"
   inkscape:export-xdpi="95.999992"
   inkscape:export-ydpi="95.999992">
  <defs
     id="defs4594">
    <linearGradient
       gradientTransform="matrix(-0.3604954,0,0,0.3604954,7.2979312,-145.65311)"
       inkscape:collect="always"
       xlink:href="#linearGradient4554"
       id="linearGradient4556"
       x1="-465.46616"
       y1="409.74039"
       x2="86.561577"
       y2="961.76813"
       gradientUnits="userSpaceOnUse" />
    <linearGradient
       inkscape:collect="always"
       id="linearGradient4554">
      <stop
         style="stop-color:#00006e;stop-opacity:1"
         offset="0"
         id="stop4550" />
      <stop
         id="stop4609"
         offset="0.51770115"
         style="stop-color:#0075ff;stop-opacity:1" />
      <stop
         style="stop-color:#000076;stop-opacity:1"
         offset="1"
         id="stop4552" />
    </linearGradient>
  </defs>
  <sodipodi:namedview
     id="base"
     pagecolor="#ffffff"
     bordercolor="#666666"
     borderopacity="1.0"
     inkscape:pageopacity="0.0"
     inkscape:pageshadow="2"
     inkscape:zoom="1"
     inkscape:cx="-242.50612"
     inkscape:cy="93.849134"
     inkscape:document-units="mm"
     inkscape:current-layer="layer1"
     showgrid="false"
     fit-margin-top="0"
     fit-margin-left="0"
     fit-margin-right="0"
     fit-margin-bottom="0"
     inkscape:window-width="1920"
     inkscape:window-height="1001"
     inkscape:window-x="-9"
     inkscape:window-y="-9"
     inkscape:window-maximized="1" />
  <metadata
     id="metadata4597">
    <rdf:RDF>
      <cc:Work
         rdf:about="">
        <dc:format>image/svg+xml</dc:format>
        <dc:type
           rdf:resource="http://purl.org/dc/dcmitype/StillImage" />
        <dc:title />
      </cc:Work>
    </rdf:RDF>
  </metadata>
  <g
     inkscape:label="Layer 1"
     inkscape:groupmode="layer"
     id="layer1"
     transform="translate(-41.728718,-73.389286)">
    <path
       style="fill:url(#linearGradient4556);fill-opacity:1;stroke:none;stroke-width:1.36250222;stroke-miterlimit:4;stroke-dasharray:none;stroke-opacity:1"
       d="m 75.594869,73.389286 c -18.762011,0 -33.866151,15.104139 -33.866151,33.866154 v 33.86718 h 33.866151 c 18.762009,0 33.866661,-15.10517 33.866661,-33.86718 V 73.389286 Z"
       id="path20" />
    <g
       id="g74"
       transform="translate(49.633086,-90.894574)"
       inkscape:export-filename="C:\Users\Setiawan Paiman\Sailfish\quran\sailquran\icons\256x256\sailquran.png"
       inkscape:export-xdpi="96.00042"
       inkscape:export-ydpi="96.00042">
      <path
         id="path4540-6"
         d="m 13.445032,182.87268 -0.95515,2.84319 -1.1044,-1.10441 H 9.4005622 l -4.79293,14.26471 5.6648298,5.66484 v 2.03658 l 3.45531,3.45459 -5.2328298,2.92068 v 3.04771 l 9.2256298,9.22563 6.70896,6.70824 a 33.866857,33.866857 0 0 0 1.64692,0.0825 33.866857,33.866857 0 0 0 31.79815,-22.33427 l -0.39181,-0.39181 0.67097,-0.3746 a 33.866857,33.866857 0 0 0 1.67491,-8.47931 l -6.3394,-6.3394 -9.4854,-9.48612 h -2.00645 l 0.15141,0.44994 -2.18944,-2.18872 -12.33218,6.29634 v 1.85001 l -1.85001,-1.85001 z"
         style="opacity:0.3;fill:#000000;fill-opacity:1;stroke:none;stroke-width:1.20915639;stroke-linecap:round;stroke-linejoin:round;stroke-miterlimit:4;stroke-dasharray:none;stroke-dashoffset:0;stroke-opacity:0"
         inkscape:connector-curvature="0" />
      <path
         id="path4542-3"
         d="m 13.444892,182.87247 -4.7271998,14.06926 17.0596598,7.85667 v -15.62935 z m 26.51469,0 -12.33247,6.29658 v 15.62935 l 17.05968,-7.85667 z m -30.5588898,1.73911 -4.79324,14.26448 7.6718598,3.53323 -2.00674,1.12039 v 3.04779 l 4.9989,-2.78998 3.33976,1.53807 -2.22805,1.2438 v 1.98125 l -7.8879498,4.40223 v 3.04777 l 15.0529298,-8.40123 2.22919,1.02655 h 1.84976 l 2.24775,-1.03525 15.05292,8.40125 v -3.04779 l -7.88795,-4.40221 v -1.98126 l -2.22804,-1.24379 3.29515,-1.51723 5.2086,2.90701 v -3.04779 l -2.21704,-1.23741 7.69854,-3.5454 -4.79326,-14.26448 h -2.00617 l 4.4306,13.18579 -18.8011,8.65902 h -1.84976 l -18.8010898,-8.721 4.4091798,-13.12381 z m 5.2399098,0.6274 c 0.0342,2.9e-4 0.0743,0.01 0.11998,0.0329 l 9.34261,4.64033 c 0.36475,0.18114 0.0996,0.76064 -0.26358,0.57641 l -9.07903,-4.60554 c -0.31779,-0.16123 -0.35902,-0.64673 -0.11998,-0.6442 z m 24.12384,0 c 0.23909,-0.003 0.1979,0.48298 -0.11985,0.64421 l -9.07904,4.60553 c -0.36325,0.18424 -0.62832,-0.39527 -0.26358,-0.5764 l 9.34262,-4.64033 c 0.0455,-0.0229 0.0858,-0.0326 0.11985,-0.0329 z m -24.5641,1.39325 c 0.034,2.9e-4 0.0743,0.0111 0.11984,0.0336 l 9.7829,4.87494 c 0.0228,0.0111 0.0428,0.0242 0.0608,0.0382 0.0178,0.014 0.0342,0.03 0.0475,0.0464 0.0269,0.0329 0.0446,0.0693 0.055,0.10776 v 5.9e-4 c 0.01,0.0383 0.0139,0.0782 0.008,0.11762 v 6e-4 c -8.9e-4,0.008 -0.006,0.016 -0.007,0.0243 -0.0125,0.0699 -0.0419,0.13692 -0.0898,0.18711 h -6e-4 v 6.1e-4 c -0.0535,0.0561 -0.12623,0.0914 -0.20853,0.0887 -0.0412,-0.001 -0.085,-0.0125 -0.1304,-0.0353 l -9.07901,-4.60556 c -0.0196,-0.01 -0.0342,-0.0254 -0.0515,-0.0376 l -0.38872,-0.19754 c -0.31764,-0.16152 -0.35886,-0.64701 -0.11998,-0.6442 z m 25.00439,0 c 0.23894,-0.003 0.19772,0.48269 -0.11998,0.6442 l -0.38874,0.19754 c -0.0175,0.0125 -0.0319,0.0276 -0.0515,0.0376 l -9.07904,4.60556 c -0.0454,0.023 -0.0892,0.0342 -0.13039,0.0353 -0.0823,0.003 -0.15507,-0.0332 -0.20855,-0.0893 v -6.1e-4 h -6e-4 c -0.0479,-0.0501 -0.0773,-0.11733 -0.0899,-0.18711 -0.001,-0.008 -0.006,-0.0165 -0.007,-0.0243 v -6.1e-4 c -0.004,-0.0393 -10e-4,-0.0793 0.008,-0.11762 v -5.8e-4 c 0.01,-0.0385 0.028,-0.0748 0.055,-0.10777 0.0139,-0.0162 0.0301,-0.0317 0.048,-0.0457 0.018,-0.0142 0.038,-0.0269 0.0608,-0.0382 l 9.7829,-4.87494 c 0.0455,-0.0224 0.0857,-0.0332 0.11984,-0.0336 z m -25.45511,1.42744 c 0.0342,2.9e-4 0.0737,0.01 0.11929,0.0331 l 0.86433,0.42868 c 0.01,0.004 0.0169,0.003 0.0272,0.008 l 9.34261,4.64031 c 0.0455,0.0226 0.0814,0.0519 0.10831,0.0846 0.0805,0.0983 0.0823,0.2319 0.0329,0.34006 v 5.9e-4 c -0.0661,0.14417 -0.22339,0.24299 -0.40492,0.1512 l -9.97059,-5.0418 c -0.318,-0.1608 -0.35853,-0.64653 -0.11929,-0.6442 z m 25.90582,0 c 0.23917,-0.003 0.19866,0.48338 -0.11929,0.64419 l -9.97061,5.04178 c -0.18153,0.0918 -0.3388,-0.007 -0.40494,-0.15119 v -6.1e-4 c -0.0494,-0.10818 -0.0476,-0.24174 0.0329,-0.34006 0.0269,-0.0328 0.0626,-0.0619 0.10832,-0.0846 l 9.34262,-4.6403 c 0.01,-0.006 0.0171,-0.003 0.0272,-0.008 l 0.86435,-0.42869 c 0.0457,-0.0229 0.0853,-0.0328 0.11928,-0.0329 z m 0.43565,1.3776 c 0.23887,-0.003 0.19771,0.48268 -0.11999,0.6442 l -1.27274,0.64709 c -0.0183,0.0125 -0.034,0.0293 -0.0544,0.0393 l -9.07903,4.60555 c -0.0228,0.0111 -0.0454,0.0199 -0.0672,0.0254 -0.0215,0.006 -0.0426,0.01 -0.063,0.01 -0.0824,0.003 -0.15509,-0.0326 -0.20857,-0.0887 v -6.1e-4 h -5.9e-4 c -0.0807,-0.0843 -0.11846,-0.2144 -0.0875,-0.32961 v -6e-4 c 0.0155,-0.0578 0.0492,-0.11165 0.10318,-0.15411 0.0181,-0.0143 0.038,-0.0269 0.0608,-0.0382 l 10.66925,-5.32621 c 0.0457,-0.0223 0.0858,-0.0332 0.11998,-0.0336 z m -26.77711,5.9e-4 c 0.034,3.1e-4 0.0743,0.0111 0.11998,0.0336 l 10.66925,5.32621 c 0.0228,0.0111 0.0428,0.024 0.0608,0.0382 0.054,0.0425 0.0869,0.0964 0.10262,0.1541 v 6e-4 c 0.031,0.11526 -0.007,0.24536 -0.0875,0.32963 h -6e-4 v 5.9e-4 c -0.0535,0.0561 -0.12623,0.0914 -0.20854,0.0887 -0.0205,-9e-4 -0.0415,-0.004 -0.0632,-0.01 -0.0218,-0.006 -0.0444,-0.014 -0.0672,-0.0254 l -9.07902,-4.60556 c -0.0205,-0.01 -0.0357,-0.026 -0.0539,-0.0387 l -1.27276,-0.6471 c -0.31763,-0.16152 -0.35879,-0.64712 -0.11985,-0.64421 z m -0.4455,1.41006 c 0.034,2.9e-4 0.0743,0.0111 0.11984,0.0336 l 11.11475,5.54462 c 0.0228,0.0111 0.0428,0.0242 0.0608,0.0382 0.054,0.0425 0.0869,0.0964 0.10262,0.1541 0.01,0.0385 0.0139,0.0786 0.008,0.11818 -0.008,0.0791 -0.0436,0.15576 -0.0973,0.21202 -0.0111,0.0111 -0.0261,0.018 -0.0387,0.0278 -0.0787,0.0607 -0.18277,0.0857 -0.3001,0.0261 l -9.07902,-4.60555 c -0.008,-0.004 -0.0144,-0.0111 -0.0226,-0.0163 l -1.74954,-0.88866 c -0.31774,-0.16134 -0.35883,-0.64704 -0.11984,-0.6442 z m 27.66811,0 c 0.23891,-0.003 0.19781,0.48286 -0.11999,0.6442 l -1.74953,0.88867 c -0.008,0.004 -0.0139,0.0111 -0.0226,0.0162 l -9.07905,4.60555 c -0.11734,0.0596 -0.22129,0.0346 -0.30009,-0.026 -0.0125,-0.01 -0.0276,-0.0161 -0.0388,-0.0278 -0.0537,-0.0562 -0.0894,-0.13289 -0.0973,-0.21202 -0.004,-0.0396 -10e-4,-0.0797 0.008,-0.11817 0.0155,-0.0576 0.0492,-0.11165 0.10318,-0.15411 0.0181,-0.0142 0.0382,-0.0269 0.0608,-0.0382 l 11.11474,-5.54463 c 0.0455,-0.0223 0.0858,-0.0332 0.11986,-0.0336 z m 0.44779,1.41874 c 0.23906,-0.003 0.19861,0.4833 -0.11927,0.64419 l -11.30013,5.71959 c -0.27252,0.1379 -0.48941,-0.1534 -0.42696,-0.38409 0.01,-0.0385 0.0281,-0.0748 0.055,-0.10776 0.0139,-0.0162 0.0301,-0.0318 0.0481,-0.0457 0.018,-0.0142 0.038,-0.0269 0.0608,-0.0382 l 11.56372,-5.75377 c 0.0455,-0.0224 0.0853,-0.0332 0.11928,-0.0336 z m -28.56428,6e-4 c 0.0342,2.9e-4 0.0737,0.0111 0.11928,0.0336 l 11.56371,5.75377 c 0.0228,0.0111 0.0428,0.0242 0.0608,0.0382 0.0178,0.014 0.0342,0.0294 0.0475,0.0457 0.0269,0.0328 0.0446,0.0699 0.055,0.10831 0.0625,0.23069 -0.15442,0.52202 -0.42694,0.3841 l -11.30013,-5.71959 c -0.31794,-0.16091 -0.35839,-0.64677 -0.11929,-0.6442 z m 29.00746,1.40136 c 0.23902,-0.003 0.19802,0.48381 -0.11998,0.64477 l -11.74271,5.94494 c -0.2725,0.13804 -0.48941,-0.15279 -0.42696,-0.38352 0.01,-0.0385 0.028,-0.0748 0.055,-0.10776 0.0139,-0.0163 0.0301,-0.0317 0.0481,-0.0457 0.018,-0.0142 0.038,-0.0269 0.0608,-0.0382 l 12.00632,-5.98028 c 0.0457,-0.0224 0.0858,-0.0332 0.11997,-0.0336 z m -29.45064,5.9e-4 c 0.0342,2.9e-4 0.0743,0.0111 0.11998,0.0336 l 12.00631,5.98027 c 0.0228,0.0111 0.0428,0.0242 0.0608,0.0382 0.0178,0.014 0.0342,0.0294 0.0475,0.0457 0.0269,0.0329 0.0446,0.0699 0.055,0.10831 0.0625,0.23073 -0.15444,0.52148 -0.42694,0.38351 l -11.74273,-5.94493 c -0.31793,-0.16098 -0.35894,-0.64744 -0.11998,-0.64479 z m -0.44897,1.42163 v 6e-4 c 0.0342,3.2e-4 0.0737,0.01 0.11928,0.0331 l 12.45585,6.18709 c 0.13678,0.0679 0.18486,0.19137 0.17264,0.30995 v 5.8e-4 c -0.004,0.0393 -0.0149,0.0783 -0.0312,0.11415 v 5.8e-4 c -0.0165,0.0358 -0.0387,0.0687 -0.0654,0.0968 v 6.1e-4 c -0.0156,0.0164 -0.0358,0.0264 -0.0544,0.0387 -0.0139,0.008 -0.0242,0.0213 -0.0387,0.0278 h -6e-4 c -0.006,0.003 -0.0125,0.001 -0.0185,0.003 -0.0486,0.0176 -0.10151,0.0247 -0.15989,0.008 -0.0218,-0.006 -0.0446,-0.0146 -0.0672,-0.0261 l -12.19226,-6.15177 c -0.31813,-0.16053 -0.3585,-0.64656 -0.11929,-0.6442 z m 30.34858,0 c 0.23914,-0.003 0.19881,0.48368 -0.11929,0.64421 l -12.19227,6.15174 c -0.0226,0.0111 -0.0447,0.0204 -0.0667,0.026 -0.0583,0.016 -0.11137,0.008 -0.1599,-0.008 -0.006,-0.003 -0.0125,-5.8e-4 -0.0185,-0.003 h -5.8e-4 c -0.0146,-0.007 -0.0255,-0.0189 -0.0387,-0.0278 -0.0186,-0.0125 -0.0389,-0.0224 -0.0544,-0.0387 v -6.1e-4 c -0.0267,-0.0281 -0.049,-0.0608 -0.0654,-0.0968 v -5.8e-4 c -0.0164,-0.0358 -0.0268,-0.0749 -0.0312,-0.11415 v -5.8e-4 c -0.0125,-0.11859 0.0358,-0.242 0.17264,-0.30993 l 12.45585,-6.18709 c 0.0457,-0.0229 0.0853,-0.0326 0.11929,-0.0329 z"
         style="opacity:1;fill:#ffffff;fill-opacity:1;stroke:none;stroke-width:0.31992263;stroke-linecap:round;stroke-linejoin:round;stroke-miterlimit:4;stroke-dasharray:none;stroke-dashoffset:0;stroke-opacity:0"
         inkscape:connector-curvature="0" />
    </g>
  </g>
</svg>
